<?xml version="1.0" encoding="UTF-8" standalone="no"?>
<svg
   width="2000"
   zoomAndPan="magnify"
   viewBox="0 0 1500 1499.999933"
   height="2000"
   preserveAspectRatio="xMidYMid meet"
   version="1.0"
   id="svg125"
   sodipodi:docname="lobster.svg"
   inkscape:version="1.4.3 (0d15f75, 2025-12-25)"
   xmlns:inkscape="http://www.inkscape.org/namespaces/inkscape"
   xmlns:sodipodi="http://sodipodi.sourceforge.net/DTD/sodipodi-0.dtd"
   xmlns="http://www.w3.org/2000/svg"
   xmlns:svg="http://www.w3.org/2000/svg">
  <sodipodi:namedview
     id="namedview125"
     pagecolor="#ffffff"
     bordercolor="#666666"
     borderopacity="1.0"
     inkscape:showpageshadow="2"
     inkscape:pageopacity="0.0"
     inkscape:pagecheckerboard="0"
     inkscape:deskcolor="#d1d1d1"
     inkscape:zoom="0.437"
     inkscape:cx="998.85584"
     inkscape:cy="998.85584"
     inkscape:window-width="1728"
     inkscape:window-height="1186"
     inkscape:window-x="2240"
     inkscape:window-y="30"
     inkscape:window-maximized="0"
     inkscape:current-layer="svg125" />
  <defs
     id="defs1">
    <g
       id="g1" />
    <clipPath
       id="349ab6594a">
      <path
         d="M 375 2 L 1016 2 L 1016 545.820312 L 375 545.820312 Z M 375 2 "
         clip-rule="nonzero"
         id="path1" />
    </clipPath>
    <clipPath
       id="3399c16d7f">
      <rect
         x="0"
         width="1437"
         y="0"
         height="845"
         id="rect1" />
    </clipPath>
  </defs>
  <g
     transform="matrix(1, 0, 0, 1, 48, 327)"
     id="g125">
    <g
       clip-path="url(#3399c16d7f)"
       id="g124">
      <g
         clip-path="url(#349ab6594a)"
         id="g3">
        <path
           fill="#f26641"
           d="M 859.824219 350.503906 C 838.09375 341.769531 812.40625 344.339844 801.335938 346.074219 C 799.824219 346.3125 798.316406 346.265625 796.820312 345.925781 C 795.328125 345.585938 793.945312 344.984375 792.679688 344.117188 C 791.554688 343.320312 790.324219 342.75 788.984375 342.40625 C 787.648438 342.058594 786.296875 341.964844 784.925781 342.117188 C 777.898438 342.90625 774.824219 349.730469 766.589844 349.886719 C 756.023438 350.085938 754.621094 344.703125 748.871094 343.359375 C 748.511719 343.285156 748.148438 343.25 747.78125 343.253906 C 747.414062 343.257812 747.050781 343.300781 746.695312 343.382812 C 746.335938 343.460938 745.988281 343.578125 745.65625 343.730469 C 745.324219 343.886719 745.007812 344.074219 744.714844 344.292969 C 744.421875 344.511719 744.15625 344.761719 743.914062 345.039062 C 743.671875 345.316406 743.464844 345.613281 743.285156 345.9375 C 743.109375 346.257812 742.96875 346.59375 742.863281 346.945312 C 742.753906 347.296875 742.6875 347.65625 742.65625 348.019531 C 742.65625 360.917969 764.722656 362.003906 764.5625 390.289062 C 764.492188 403.378906 756.171875 434.105469 694.167969 458.351562 C 618.464844 487.949219 599.308594 487.253906 592.433594 470.242188 C 592.300781 469.917969 592.085938 469.65625 591.789062 469.460938 C 591.492188 469.265625 591.167969 469.171875 590.816406 469.179688 C 590.460938 469.1875 590.140625 469.296875 589.851562 469.503906 C 589.566406 469.710938 589.363281 469.980469 589.246094 470.3125 C 577.746094 504.402344 601.605469 545.992188 693.546875 545.992188 C 794.265625 545.992188 900.195312 486.726562 858.109375 392.609375 C 858.050781 392.492188 858.035156 392.371094 858.058594 392.242188 C 858.085938 392.113281 858.144531 392.007812 858.242188 391.921875 C 858.34375 391.835938 858.457031 391.792969 858.585938 391.785156 C 858.714844 391.777344 858.835938 391.8125 858.941406 391.882812 C 865.519531 396.203125 889.742188 415.476562 882.203125 461.148438 C 912.34375 446.542969 929.113281 408.960938 926.015625 370.707031 C 923.53125 339.9375 886.855469 323.777344 859.816406 350.507812 Z M 831.230469 265.972656 C 872.269531 265.972656 922.746094 294.136719 941.71875 328.285156 C 948.710938 340.875 951.753906 360.785156 943.105469 378.074219 C 942.964844 378.367188 942.75 378.578125 942.453125 378.710938 C 942.160156 378.84375 941.859375 378.867188 941.546875 378.777344 C 941.234375 378.691406 940.988281 378.515625 940.808594 378.246094 C 940.625 377.980469 940.550781 377.683594 940.585938 377.363281 C 942.558594 357.921875 933.328125 322.683594 887.964844 322.519531 C 885.046875 322.535156 882.152344 322.785156 879.273438 323.265625 C 876.398438 323.75 873.578125 324.460938 870.816406 325.398438 C 868.054688 326.335938 865.386719 327.488281 862.808594 328.855469 C 860.234375 330.222656 857.785156 331.789062 855.460938 333.554688 C 845.613281 330.796875 824.707031 329.058594 813.828125 329.988281 C 782.75 316.9375 786.796875 265.964844 831.230469 265.964844 Z M 888.417969 304.042969 C 888.554688 304.082031 888.6875 304.074219 888.816406 304.015625 C 888.945312 303.957031 889.042969 303.863281 889.105469 303.738281 C 889.164062 303.609375 889.179688 303.476562 889.144531 303.339844 C 889.109375 303.203125 889.03125 303.09375 888.917969 303.011719 C 843.738281 271.003906 809.441406 279.679688 807.308594 295.5 C 806.773438 299.5 808.863281 306.066406 817.257812 305.132812 C 826.078125 286.410156 874.96875 299.914062 888.417969 304.042969 Z M 706.292969 57.585938 C 715.027344 54.25 720.644531 48.652344 722.792969 43.039062 C 721.246094 35.445312 723.757812 25.71875 727.011719 23.242188 C 730.238281 46.46875 747.78125 75.589844 752.460938 83.027344 C 760.523438 79.804688 768.820312 77.40625 777.355469 75.828125 C 742.550781 38.71875 744.6875 3.511719 729.417969 2.175781 C 724.484375 1.75 718.320312 4.238281 717.429688 16.046875 C 716.085938 33.949219 711.859375 45.871094 703.851562 53.886719 C 703.671875 54.074219 703.53125 54.28125 703.425781 54.519531 C 703.316406 54.753906 703.253906 55 703.230469 55.257812 C 703.207031 55.511719 703.230469 55.765625 703.292969 56.015625 C 703.355469 56.265625 703.457031 56.5 703.601562 56.714844 C 703.742188 56.929688 703.917969 57.113281 704.125 57.269531 C 704.328125 57.425781 704.554688 57.542969 704.800781 57.621094 C 705.046875 57.699219 705.296875 57.738281 705.554688 57.730469 C 705.8125 57.722656 706.0625 57.675781 706.304688 57.585938 Z M 650.636719 85.050781 C 650.375 85.183594 650.097656 85.269531 649.804688 85.308594 C 649.511719 85.34375 649.222656 85.332031 648.933594 85.269531 C 648.648438 85.207031 648.378906 85.097656 648.128906 84.945312 C 647.878906 84.789062 647.660156 84.597656 647.476562 84.367188 C 647.292969 84.136719 647.152344 83.882812 647.058594 83.605469 C 646.960938 83.324219 646.914062 83.039062 646.917969 82.746094 C 646.917969 82.449219 646.972656 82.164062 647.074219 81.890625 C 647.175781 81.613281 647.316406 81.359375 647.507812 81.132812 C 655.730469 71.324219 659.3125 57.503906 659.058594 37.230469 C 658.894531 23.855469 665.585938 20.441406 671.179688 20.441406 C 688.492188 20.441406 685.824219 56.738281 728.632812 95.058594 C 720.886719 99.851562 713.527344 105.179688 706.554688 111.042969 C 706.554688 111.042969 677.390625 74.210938 670.5625 44.375 C 667.148438 47.484375 665.28125 58.671875 667.765625 67.0625 C 665.902344 73.585938 660.132812 80.433594 650.640625 85.050781 Z M 425.195312 398.414062 C 411.558594 399.6875 374.480469 379.074219 375.617188 321.292969 C 376.65625 268.152344 412.132812 146.472656 499.308594 119.277344 C 536.605469 83.226562 586.957031 56.1875 628.910156 94.414062 C 668.695312 100.492188 683.417969 124.976562 686.203125 130.339844 C 678.074219 139.011719 670.683594 148.269531 664.027344 158.117188 L 662.5 160.414062 C 653.601562 148.976562 620.308594 159.957031 620.695312 125.84375 C 620.691406 125.570312 620.5625 125.390625 620.304688 125.300781 C 620.046875 125.210938 619.832031 125.269531 619.660156 125.480469 C 611.25 135.953125 615.78125 149.929688 621.585938 154.792969 C 620.238281 156.761719 618.625 158.480469 616.746094 159.953125 C 614.867188 161.421875 612.8125 162.574219 610.578125 163.410156 C 609.363281 153.410156 591.597656 111.773438 541.136719 116.066406 C 540.996094 116.078125 540.875 116.136719 540.777344 116.238281 C 540.679688 116.335938 540.625 116.457031 540.613281 116.597656 C 540.605469 116.738281 540.640625 116.867188 540.722656 116.980469 C 540.804688 117.09375 540.914062 117.167969 541.050781 117.203125 C 556.179688 120.539062 610.269531 137.269531 594.742188 203.640625 C 594.320312 205.449219 594.171875 207.277344 594.296875 209.128906 C 594.421875 210.984375 594.816406 212.777344 595.476562 214.511719 C 595.707031 215.125 595.878906 215.757812 595.992188 216.40625 C 596.105469 217.050781 596.152344 217.703125 596.140625 218.359375 C 596.125 219.015625 596.050781 219.667969 595.914062 220.308594 C 595.773438 220.953125 595.574219 221.574219 595.316406 222.179688 C 595.058594 222.78125 594.746094 223.355469 594.378906 223.902344 C 594.011719 224.445312 593.59375 224.949219 593.128906 225.414062 C 592.664062 225.875 592.15625 226.292969 591.613281 226.65625 C 591.066406 227.023438 590.492188 227.335938 589.886719 227.59375 C 581.980469 231.78125 578.875 239.554688 582.605469 251.675781 C 585.710938 261.308594 582.914062 268.769531 577.320312 268.769531 C 572.660156 268.769531 571.949219 262.847656 571.105469 260.375 C 567.375 249.496094 556.964844 237.839844 535.207031 241.101562 C 509.78125 244.917969 460.152344 277.464844 425.65625 365.109375 C 421.070312 376.753906 420.960938 389.640625 426.28125 395.59375 C 426.496094 395.828125 426.632812 396.105469 426.6875 396.417969 C 426.746094 396.730469 426.71875 397.035156 426.601562 397.332031 C 426.488281 397.632812 426.304688 397.875 426.050781 398.070312 C 425.796875 398.261719 425.511719 398.375 425.195312 398.410156 Z M 403.949219 360.695312 C 404.542969 348.789062 406.804688 337.207031 410.734375 325.953125 C 440.886719 238.3125 500.71875 211.328125 523.554688 208.476562 C 553.386719 204.746094 560.382812 215.933594 560.382812 215.933594 C 562.058594 212.703125 563.25 209.308594 563.964844 205.742188 C 564.679688 202.175781 564.882812 198.578125 564.578125 194.953125 C 563.648438 180.503906 550.582031 170.847656 533.808594 170.25 C 471.285156 168.015625 410.507812 255.390625 401.101562 334.347656 C 400.300781 341.070312 399.933594 352.332031 402.824219 360.859375 C 402.867188 360.992188 402.949219 361.09375 403.066406 361.167969 C 403.1875 361.242188 403.316406 361.269531 403.453125 361.25 C 403.589844 361.226562 403.707031 361.167969 403.800781 361.0625 C 403.894531 360.957031 403.941406 360.835938 403.949219 360.695312 Z M 986.78125 121.800781 C 1021.023438 153.277344 1029.601562 230.390625 986.574219 262.972656 C 986.296875 263.179688 985.984375 263.296875 985.636719 263.324219 C 985.292969 263.355469 984.964844 263.289062 984.65625 263.132812 C 984.347656 262.972656 984.105469 262.746094 983.925781 262.449219 C 983.746094 262.152344 983.660156 261.828125 983.664062 261.480469 C 983.746094 259.773438 983.460938 258.128906 982.808594 256.546875 C 971.3125 263.09375 964.730469 275.71875 957.191406 279.457031 C 956.875 279.609375 956.542969 279.660156 956.195312 279.617188 C 955.84375 279.570312 955.535156 279.4375 955.269531 279.210938 C 955 278.984375 954.8125 278.703125 954.710938 278.367188 C 954.605469 278.035156 954.601562 277.695312 954.699219 277.359375 C 955.378906 275.261719 955.535156 273.128906 955.160156 270.957031 C 947.359375 271.992188 940.941406 281.640625 933.988281 283.855469 C 933.644531 283.960938 933.300781 283.964844 932.953125 283.867188 C 932.609375 283.765625 932.320312 283.578125 932.085938 283.304688 C 931.847656 283.03125 931.710938 282.71875 931.664062 282.359375 C 931.617188 282.003906 931.671875 281.664062 931.828125 281.339844 C 932.855469 279.039062 933.519531 276.640625 933.8125 274.140625 C 925.417969 272.792969 917.011719 279.507812 910.035156 280.042969 C 909.660156 280.070312 909.308594 279.988281 908.984375 279.796875 C 908.660156 279.605469 908.417969 279.339844 908.261719 279 C 908.101562 278.65625 908.054688 278.300781 908.121094 277.929688 C 908.183594 277.558594 908.347656 277.238281 908.609375 276.96875 C 909.371094 276.332031 909.957031 275.5625 910.363281 274.65625 C 910.765625 273.75 910.953125 272.800781 910.917969 271.808594 C 903.539062 269.777344 894.996094 273.132812 888.84375 271.417969 C 888.503906 271.328125 888.21875 271.15625 887.980469 270.898438 C 887.742188 270.640625 887.59375 270.339844 887.53125 269.992188 C 887.472656 269.648438 887.507812 269.3125 887.640625 268.992188 C 887.777344 268.667969 887.988281 268.40625 888.273438 268.203125 C 889.167969 267.675781 889.945312 267.011719 890.613281 266.21875 C 891.28125 265.421875 891.800781 264.539062 892.167969 263.570312 C 886.835938 259.691406 876.5625 260.011719 872.144531 256.25 C 871.871094 256.007812 871.6875 255.714844 871.59375 255.363281 C 871.5 255.011719 871.511719 254.664062 871.625 254.320312 C 871.742188 253.976562 871.941406 253.695312 872.226562 253.472656 C 872.515625 253.25 872.839844 253.125 873.199219 253.09375 C 875.515625 252.804688 877.652344 252.015625 879.601562 250.730469 C 867.714844 247.460938 865.148438 237.910156 865.148438 237.910156 C 860.027344 240.242188 852.097656 240.007812 847.433594 236.976562 C 847.203125 238.617188 847.335938 240.230469 847.828125 241.808594 C 848.324219 243.390625 849.132812 244.789062 850.261719 246.003906 C 850.464844 246.242188 850.589844 246.519531 850.632812 246.832031 C 850.675781 247.140625 850.632812 247.441406 850.496094 247.726562 C 850.363281 248.007812 850.164062 248.234375 849.894531 248.398438 C 849.625 248.566406 849.335938 248.644531 849.019531 248.636719 C 842.53125 248.351562 836.976562 243.894531 836.53125 238.308594 C 842.359375 229.585938 847.550781 220.5 852.109375 211.050781 L 861.480469 209.507812 C 867.636719 208.511719 873.628906 206.90625 879.457031 204.6875 C 885.285156 202.464844 890.828125 199.679688 896.085938 196.328125 L 896.101562 196.328125 C 951.917969 207.839844 976.308594 176.535156 980.007812 150.097656 C 980.046875 149.851562 980.003906 149.625 979.875 149.414062 C 979.75 149.203125 979.566406 149.058594 979.332031 148.984375 C 979.097656 148.90625 978.867188 148.917969 978.636719 149.015625 C 978.410156 149.109375 978.242188 149.269531 978.132812 149.492188 C 966.402344 172.019531 940.125 187.804688 913.570312 182.492188 C 913.449219 182.46875 913.367188 182.398438 913.332031 182.277344 C 913.296875 182.15625 913.324219 182.054688 913.414062 181.96875 C 929.046875 166.894531 939.117188 120.613281 910.445312 94.453125 C 910.265625 94.285156 910.054688 94.199219 909.808594 94.1875 C 909.5625 94.175781 909.34375 94.246094 909.148438 94.394531 C 908.953125 94.542969 908.828125 94.738281 908.777344 94.976562 C 908.722656 95.21875 908.753906 95.445312 908.867188 95.664062 C 911.460938 100.582031 913.410156 105.742188 914.714844 111.148438 C 916.015625 116.554688 916.632812 122.035156 916.5625 127.597656 C 916.5625 168.058594 887.714844 189.136719 858.910156 193.871094 C 872.046875 159.707031 867.082031 108.257812 823.90625 95.460938 C 823.65625 95.390625 823.417969 95.410156 823.183594 95.519531 C 822.949219 95.632812 822.785156 95.808594 822.6875 96.046875 C 822.585938 96.285156 822.582031 96.527344 822.667969 96.769531 C 822.753906 97.011719 822.910156 97.195312 823.136719 97.320312 C 843.832031 108.734375 851.136719 126.480469 851.136719 147.566406 C 851.136719 175.71875 836.96875 265.015625 686.585938 333.738281 C 686.410156 333.820312 686.226562 333.84375 686.035156 333.808594 C 685.84375 333.777344 685.679688 333.695312 685.539062 333.558594 C 685.402344 333.425781 685.3125 333.261719 685.273438 333.074219 C 685.234375 332.882812 685.25 332.699219 685.324219 332.519531 C 687.664062 326.9375 694.742188 314.671875 706.542969 312.667969 C 734.332031 307.941406 736.910156 290.484375 737.449219 285.75 C 737.492188 285.363281 737.570312 284.980469 737.683594 284.605469 C 737.796875 284.230469 737.941406 283.871094 738.121094 283.523438 C 738.300781 283.175781 738.511719 282.847656 738.753906 282.539062 C 738.992188 282.230469 739.257812 281.949219 739.550781 281.6875 C 739.84375 281.429688 740.15625 281.199219 740.492188 280.996094 C 740.828125 280.796875 741.175781 280.625 741.542969 280.488281 C 741.910156 280.351562 742.285156 280.25 742.671875 280.179688 C 743.054688 280.113281 743.441406 280.078125 743.832031 280.082031 L 743.894531 280.082031 C 761.71875 280.082031 776.605469 267.390625 780.109375 249.214844 C 783.78125 230.152344 773.746094 212.882812 754.546875 205.203125 C 753.914062 204.945312 753.269531 204.699219 752.609375 204.445312 C 747.113281 202.34375 745.332031 201.472656 743.257812 195.046875 C 736.769531 174.910156 718.660156 162.703125 697.917969 162.703125 C 691.195312 162.738281 684.699219 163.976562 678.429688 166.421875 C 678.25 166.492188 678.097656 166.453125 677.976562 166.304688 C 677.851562 166.152344 677.84375 165.996094 677.953125 165.832031 C 686.0625 153.902344 726.949219 98.015625 786.027344 90.527344 C 801.414062 69.085938 823.324219 60.226562 845.464844 60.226562 C 850.953125 60.226562 856.378906 60.792969 861.746094 61.929688 C 867.113281 63.066406 872.304688 64.746094 877.320312 66.972656 C 887.726562 58.699219 904.917969 51.835938 920.523438 51.835938 C 955.566406 51.835938 986.953125 79.808594 986.953125 117.417969 C 986.953125 118.882812 986.894531 120.34375 986.792969 121.804688 Z M 762.664062 179.84375 C 795.1875 168.621094 821.617188 139.691406 821.914062 122.695312 C 822.082031 112.882812 813.984375 103.117188 802.796875 110.109375 C 802.796875 110.109375 818.359375 133.675781 761.773438 178.199219 C 761.589844 178.34375 761.476562 178.527344 761.429688 178.753906 C 761.382812 178.980469 761.417969 179.195312 761.527344 179.398438 C 761.636719 179.601562 761.800781 179.746094 762.015625 179.828125 C 762.230469 179.914062 762.445312 179.917969 762.664062 179.84375 Z M 895.5 234.925781 C 927.117188 264.382812 997.039062 250.320312 998.285156 194.980469 C 998.292969 194.730469 998.21875 194.511719 998.0625 194.316406 C 997.90625 194.125 997.707031 194.003906 997.464844 193.957031 C 997.21875 193.910156 996.988281 193.949219 996.773438 194.074219 C 996.558594 194.195312 996.40625 194.375 996.324219 194.609375 C 982.539062 233.496094 934.761719 247.335938 896.5625 233.246094 C 896.335938 233.160156 896.109375 233.15625 895.882812 233.230469 C 895.652344 233.308594 895.472656 233.445312 895.34375 233.652344 C 895.214844 233.855469 895.167969 234.074219 895.195312 234.316406 C 895.222656 234.554688 895.324219 234.757812 895.5 234.925781 Z M 609.796875 395.417969 C 609.039062 395.9375 608.230469 396.347656 607.363281 396.652344 C 606.5 396.953125 605.609375 397.140625 604.695312 397.207031 C 603.78125 397.277344 602.875 397.222656 601.972656 397.050781 C 601.074219 396.878906 600.210938 396.59375 599.386719 396.195312 C 578.332031 425.953125 537.070312 520.121094 490.609375 518.335938 C 480.589844 518.335938 471.050781 509.113281 473.035156 497.753906 C 473.074219 497.53125 473.183594 497.347656 473.355469 497.199219 C 473.527344 497.054688 473.726562 496.980469 473.953125 496.976562 C 474.179688 496.972656 474.378906 497.042969 474.558594 497.183594 C 474.734375 497.324219 474.847656 497.503906 474.894531 497.726562 C 476.339844 505.085938 481.339844 512.121094 490.609375 512.121094 C 512.277344 512.121094 540.113281 489.074219 604.523438 365.652344 C 604.699219 365.320312 604.683594 364.996094 604.480469 364.683594 C 604.277344 364.367188 603.988281 364.222656 603.613281 364.242188 C 585.625 365.539062 577.824219 387.414062 561.363281 390.289062 C 561.144531 390.328125 560.941406 390.292969 560.746094 390.1875 C 560.554688 390.078125 560.414062 389.925781 560.328125 389.722656 C 560.242188 389.519531 560.230469 389.308594 560.289062 389.097656 C 560.347656 388.882812 560.464844 388.714844 560.644531 388.582031 C 574.257812 378.429688 572.914062 368.523438 581.296875 358.980469 C 581.429688 358.832031 581.507812 358.660156 581.53125 358.460938 C 581.554688 358.261719 581.519531 358.074219 581.421875 357.898438 C 581.328125 357.722656 581.191406 357.589844 581.011719 357.5 C 580.832031 357.414062 580.640625 357.386719 580.445312 357.417969 C 567.691406 359.707031 564.03125 378.9375 549.398438 381.601562 C 549.183594 381.636719 548.984375 381.601562 548.792969 381.5 C 548.601562 381.398438 548.460938 381.246094 548.371094 381.050781 C 548.285156 380.851562 548.265625 380.644531 548.320312 380.433594 C 548.371094 380.226562 548.484375 380.050781 548.652344 379.917969 C 561.625 369.589844 559.792969 357.566406 569.640625 347.199219 C 569.792969 347.046875 569.878906 346.859375 569.90625 346.648438 C 569.929688 346.433594 569.886719 346.234375 569.773438 346.046875 C 569.660156 345.863281 569.503906 345.734375 569.300781 345.65625 C 569.101562 345.578125 568.898438 345.570312 568.691406 345.636719 C 558.710938 348.621094 545.90625 359.246094 540.339844 370.246094 C 540.339844 370.246094 534.746094 372.265625 531.019531 369.316406 C 509.261719 386.40625 463.261719 445.921875 424.105469 445.921875 C 410.164062 445.921875 402.71875 433.191406 406.402344 423.570312 C 406.488281 423.359375 406.632812 423.199219 406.835938 423.089844 C 407.035156 422.984375 407.25 422.953125 407.472656 423 C 407.695312 423.042969 407.878906 423.15625 408.019531 423.335938 C 408.164062 423.515625 408.230469 423.71875 408.226562 423.945312 C 408.183594 431.320312 411.339844 439.394531 424.105469 439.394531 C 467.644531 439.394531 525.605469 347.964844 583.355469 310.515625 C 583.566406 310.378906 583.78125 310.378906 583.996094 310.507812 C 584.210938 310.640625 584.308594 310.832031 584.285156 311.082031 C 584.023438 314.039062 584.375 321.199219 593.484375 323.15625 C 608.050781 326.285156 640.085938 308.417969 652.042969 303.1875 C 652.164062 303.132812 652.292969 303.109375 652.429688 303.121094 C 673.808594 304.105469 695.734375 289.5625 694.496094 279.953125 C 693.0625 268.859375 681.441406 273.429688 676.15625 276.226562 C 657.214844 286.253906 595.660156 321.289062 595.660156 305.753906 C 595.660156 300.238281 605.683594 288.230469 607.015625 286.65625 C 607.113281 286.539062 607.175781 286.410156 607.203125 286.257812 C 610.597656 269.167969 647.554688 174.589844 697.914062 174.589844 C 712.828125 174.589844 726.507812 182.671875 731.789062 198.203125 C 736.289062 211.445312 743.488281 213.566406 750.125 216.230469 C 782.757812 229.28125 768.773438 272.480469 739.558594 267.820312 C 729.125 266.15625 725.273438 274.621094 725.886719 281.496094 C 726.582031 289.34375 721.222656 300.066406 705.992188 300.765625 C 690.953125 301.457031 686.917969 316.792969 680.371094 314.628906 C 680.046875 314.511719 679.742188 314.550781 679.460938 314.742188 C 666.546875 324.117188 673.617188 337.523438 643.386719 351.605469 C 643.175781 351.703125 642.960938 351.722656 642.734375 351.664062 C 642.511719 351.601562 642.332031 351.476562 642.203125 351.28125 C 642.070312 351.089844 642.015625 350.878906 642.042969 350.648438 C 642.066406 350.417969 642.164062 350.21875 642.332031 350.058594 C 645.722656 346.773438 648.609375 343.09375 650.988281 339.015625 C 653.367188 334.9375 655.152344 330.617188 656.34375 326.046875 C 656.394531 325.851562 656.382812 325.65625 656.308594 325.46875 C 656.234375 325.277344 656.109375 325.128906 655.9375 325.019531 C 655.765625 324.910156 655.578125 324.859375 655.375 324.871094 C 655.171875 324.882812 654.992188 324.957031 654.835938 325.085938 C 646.636719 331.816406 616.371094 358.8125 609.800781 395.402344 Z M 645.183594 269.355469 C 680.441406 255.285156 713.480469 225.285156 717.644531 212.207031 C 720.90625 201.949219 707.890625 196.222656 701.636719 210.652344 C 694.890625 226.214844 668.863281 249.746094 644.277344 267.714844 C 644.085938 267.855469 643.964844 268.042969 643.914062 268.273438 C 643.863281 268.503906 643.894531 268.726562 644.011719 268.933594 C 644.125 269.140625 644.292969 269.285156 644.515625 269.363281 C 644.738281 269.445312 644.960938 269.441406 645.183594 269.355469 Z M 597.160156 438.746094 C 607.882812 403.347656 697.136719 358.679688 732.40625 366.980469 C 742.972656 369.464844 754.039062 382.640625 745.746094 396.902344 C 728.929688 425.8125 637.144531 399.273438 606.761719 440.867188 C 603.121094 445.847656 602.199219 449.722656 602.070312 452.097656 C 602.050781 452.402344 601.953125 452.683594 601.78125 452.9375 C 601.609375 453.195312 601.382812 453.386719 601.109375 453.519531 C 600.832031 453.652344 600.539062 453.707031 600.230469 453.679688 C 599.925781 453.65625 599.648438 453.554688 599.394531 453.378906 C 596.457031 451.277344 594.636719 447.0625 597.152344 438.75 Z M 660.566406 400.238281 C 677.261719 388.082031 724.832031 371.722656 731.867188 382.539062 C 736.417969 389.523438 729.84375 395.59375 712.625 392.832031 C 693.5625 389.777344 668.320312 397.96875 660.921875 400.871094 C 660.726562 400.949219 660.574219 400.894531 660.472656 400.710938 C 660.367188 400.527344 660.398438 400.371094 660.566406 400.238281 Z M 534.554688 257.046875 C 504.035156 264.285156 502.90625 353.894531 457.3125 369.855469 C 451.851562 371.765625 448.128906 371.546875 445.957031 371.023438 C 445.675781 370.957031 445.398438 370.964844 445.121094 371.050781 C 444.847656 371.136719 444.613281 371.285156 444.417969 371.5 C 444.222656 371.714844 444.097656 371.960938 444.035156 372.242188 C 443.976562 372.527344 443.992188 372.804688 444.082031 373.078125 C 445.171875 376.285156 448.460938 379.058594 456.601562 379.058594 C 491.296875 379.058594 556.285156 311.167969 556.285156 277.1875 C 556.285156 266.195312 549.613281 253.480469 534.558594 257.050781 Z M 543.683594 273.40625 C 538.648438 267.433594 531.410156 271.675781 529.210938 287.878906 C 526.769531 305.828125 512.554688 326.261719 507.9375 332.109375 C 507.8125 332.265625 507.820312 332.417969 507.957031 332.5625 C 508.09375 332.707031 508.242188 332.71875 508.40625 332.605469 C 523.859375 320.917969 551.480469 282.664062 543.683594 273.40625 Z M 831.230469 422.921875 C 817.457031 485.890625 686.023438 518.324219 628.214844 503.515625 C 628.058594 503.488281 627.933594 503.414062 627.839844 503.285156 C 627.746094 503.15625 627.714844 503.011719 627.738281 502.855469 C 627.765625 502.699219 627.839844 502.574219 627.96875 502.480469 C 628.097656 502.386719 628.238281 502.355469 628.394531 502.378906 C 675.183594 505.140625 811.851562 461.824219 795.492188 384.378906 C 818.1875 374.441406 837.765625 393.085938 831.230469 422.921875 Z M 831.230469 422.921875 "
           fill-opacity="1"
           fill-rule="evenodd"
           id="path3" />
      </g>
      <g
         fill="#414042"
         fill-opacity="1"
         id="g6">
        <g
           transform="translate(0.255775, 722.841794)"
           id="g5">
          <g
             id="g4">
            <path
               d="M 72.5 2.078125 C 60.125 2.078125 48.9375 -0.609375 38.9375 -5.984375 C 28.9375 -11.359375 21.070312 -18.816406 15.34375 -28.359375 C 9.625 -37.898438 6.765625 -48.679688 6.765625 -60.703125 C 6.765625 -72.722656 9.625 -83.503906 15.34375 -93.046875 C 21.070312 -102.585938 28.9375 -110.046875 38.9375 -115.421875 C 48.9375 -120.796875 60.179688 -123.484375 72.671875 -123.484375 C 83.191406 -123.484375 92.703125 -121.632812 101.203125 -117.9375 C 109.703125 -114.238281 116.84375 -108.921875 122.625 -101.984375 L 104.578125 -85.328125 C 96.367188 -94.804688 86.195312 -99.546875 74.0625 -99.546875 C 66.539062 -99.546875 59.832031 -97.898438 53.9375 -94.609375 C 48.039062 -91.316406 43.441406 -86.722656 40.140625 -80.828125 C 36.847656 -74.929688 35.203125 -68.222656 35.203125 -60.703125 C 35.203125 -53.191406 36.847656 -46.484375 40.140625 -40.578125 C 43.441406 -34.679688 48.039062 -30.085938 53.9375 -26.796875 C 59.832031 -23.503906 66.539062 -21.859375 74.0625 -21.859375 C 86.195312 -21.859375 96.367188 -26.65625 104.578125 -36.25 L 122.625 -19.59375 C 116.84375 -12.539062 109.671875 -7.164062 101.109375 -3.46875 C 92.554688 0.226562 83.019531 2.078125 72.5 2.078125 Z M 72.5 2.078125 "
               id="path4" />
          </g>
        </g>
      </g>
      <g
         fill="#414042"
         fill-opacity="1"
         id="g9">
        <g
           transform="translate(158.604355, 722.841794)"
           id="g8">
          <g
             id="g7">
            <path
               d="M 14.390625 -121.40625 L 42.5 -121.40625 L 42.5 -22.890625 L 103.375 -22.890625 L 103.375 0 L 14.390625 0 Z M 14.390625 -121.40625 "
               id="path6" />
          </g>
        </g>
      </g>
      <g
         fill="#414042"
         fill-opacity="1"
         id="g12">
        <g
           transform="translate(294.579877, 722.841794)"
           id="g11">
          <g
             id="g10">
            <path
               d="M 94.34375 -26.015625 L 37.984375 -26.015625 L 27.234375 0 L -1.5625 0 L 52.546875 -121.40625 L 80.296875 -121.40625 L 134.59375 0 L 105.109375 0 Z M 85.5 -47.34375 L 66.25 -93.828125 L 47 -47.34375 Z M 85.5 -47.34375 "
               id="path9" />
          </g>
        </g>
      </g>
      <g
         fill="#414042"
         fill-opacity="1"
         id="g15">
        <g
           transform="translate(458.651802, 722.841794)"
           id="g14">
          <g
             id="g13">
            <path
               d="M 197.890625 -121.40625 L 158.171875 0 L 128 0 L 101.28125 -82.203125 L 73.71875 0 L 43.703125 0 L 3.8125 -121.40625 L 32.953125 -121.40625 L 60.359375 -36.078125 L 88.96875 -121.40625 L 114.984375 -121.40625 L 142.734375 -35.375 L 171.015625 -121.40625 Z M 197.890625 -121.40625 "
               id="path12" />
          </g>
        </g>
      </g>
      <g
         fill="#414042"
         fill-opacity="1"
         id="g18">
        <g
           transform="translate(691.577262, 722.841794)"
           id="g17">
          <g
             id="g16">
            <path
               d="M 54.28125 2.078125 C 44.6875 2.078125 35.410156 0.78125 26.453125 -1.8125 C 17.492188 -4.414062 10.296875 -7.800781 4.859375 -11.96875 L 14.390625 -33.125 C 19.597656 -29.3125 25.785156 -26.25 32.953125 -23.9375 C 40.117188 -21.625 47.285156 -20.46875 54.453125 -20.46875 C 62.429688 -20.46875 68.328125 -21.648438 72.140625 -24.015625 C 75.960938 -26.390625 77.875 -29.539062 77.875 -33.46875 C 77.875 -36.363281 76.742188 -38.765625 74.484375 -40.671875 C 72.234375 -42.578125 69.34375 -44.109375 65.8125 -45.265625 C 62.289062 -46.421875 57.523438 -47.691406 51.515625 -49.078125 C 42.265625 -51.273438 34.691406 -53.472656 28.796875 -55.671875 C 22.898438 -57.867188 17.835938 -61.394531 13.609375 -66.25 C 9.390625 -71.101562 7.28125 -77.578125 7.28125 -85.671875 C 7.28125 -92.734375 9.1875 -99.125 13 -104.84375 C 16.820312 -110.5625 22.578125 -115.097656 30.265625 -118.453125 C 37.953125 -121.804688 47.347656 -123.484375 58.453125 -123.484375 C 66.191406 -123.484375 73.757812 -122.554688 81.15625 -120.703125 C 88.5625 -118.859375 95.039062 -116.203125 100.59375 -112.734375 L 91.921875 -91.40625 C 80.703125 -97.757812 69.488281 -100.9375 58.28125 -100.9375 C 50.414062 -100.9375 44.601562 -99.664062 40.84375 -97.125 C 37.082031 -94.582031 35.203125 -91.226562 35.203125 -87.0625 C 35.203125 -82.90625 37.367188 -79.8125 41.703125 -77.78125 C 46.046875 -75.757812 52.671875 -73.765625 61.578125 -71.796875 C 70.828125 -69.609375 78.398438 -67.414062 84.296875 -65.21875 C 90.191406 -63.019531 95.25 -59.550781 99.46875 -54.8125 C 103.6875 -50.070312 105.796875 -43.65625 105.796875 -35.5625 C 105.796875 -28.625 103.859375 -22.289062 99.984375 -16.5625 C 96.109375 -10.84375 90.296875 -6.304688 82.546875 -2.953125 C 74.804688 0.398438 65.382812 2.078125 54.28125 2.078125 Z M 54.28125 2.078125 "
               id="path15" />
          </g>
        </g>
      </g>
      <g
         fill="#414042"
         fill-opacity="1"
         id="g21">
        <g
           transform="translate(833.449569, 722.841794)"
           id="g20">
          <g
             id="g19">
            <path
               d="M 197.890625 -121.40625 L 158.171875 0 L 128 0 L 101.28125 -82.203125 L 73.71875 0 L 43.703125 0 L 3.8125 -121.40625 L 32.953125 -121.40625 L 60.359375 -36.078125 L 88.96875 -121.40625 L 114.984375 -121.40625 L 142.734375 -35.375 L 171.015625 -121.40625 Z M 197.890625 -121.40625 "
               id="path18" />
          </g>
        </g>
      </g>
      <g
         fill="#414042"
         fill-opacity="1"
         id="g24">
        <g
           transform="translate(1066.374989, 722.841794)"
           id="g23">
          <g
             id="g22">
            <path
               d="M 14.390625 -121.40625 L 42.5 -121.40625 L 42.5 0 L 14.390625 0 Z M 14.390625 -121.40625 "
               id="path21" />
          </g>
        </g>
      </g>
      <g
         fill="#414042"
         fill-opacity="1"
         id="g27">
        <g
           transform="translate(1154.482534, 722.841794)"
           id="g26">
          <g
             id="g25">
            <path
               d="M 42.5 -98.859375 L 42.5 -66.78125 L 98.6875 -66.78125 L 98.6875 -44.234375 L 42.5 -44.234375 L 42.5 0 L 14.390625 0 L 14.390625 -121.40625 L 106.140625 -121.40625 L 106.140625 -98.859375 Z M 42.5 -98.859375 "
               id="path24" />
          </g>
        </g>
      </g>
      <g
         fill="#414042"
         fill-opacity="1"
         id="g30">
        <g
           transform="translate(1296.528281, 722.841794)"
           id="g29">
          <g
             id="g28">
            <path
               d="M 39.546875 -98.515625 L 0.6875 -98.515625 L 0.6875 -121.40625 L 106.484375 -121.40625 L 106.484375 -98.515625 L 67.640625 -98.515625 L 67.640625 0 L 39.546875 0 Z M 39.546875 -98.515625 "
               id="path27" />
          </g>
        </g>
      </g>
      <path
         fill="#f26641"
         d="M 34.523438 834.09375 L 1379.277344 834.09375 L 1379.277344 839.402344 L 34.523438 839.402344 Z M 34.523438 834.09375 "
         fill-opacity="1"
         fill-rule="nonzero"
         id="path30" />
      <g
         fill="#f26641"
         fill-opacity="1"
         id="g33">
        <g
           transform="translate(34.525162, 830.112833)"
           id="g32">
          <g
             id="g31">
            <path
               d="M 12.921875 -32.203125 L 0.234375 -32.203125 L 0.234375 -39.6875 L 34.8125 -39.6875 L 34.8125 -32.203125 L 22.109375 -32.203125 L 22.109375 0 L 12.921875 0 Z M 12.921875 -32.203125 "
               id="path31" />
          </g>
        </g>
      </g>
      <g
         fill="#f26641"
         fill-opacity="1"
         id="g36">
        <g
           transform="translate(79.359273, 830.112833)"
           id="g35">
          <g
             id="g34">
            <path
               d="M 30.84375 -8.5 L 12.421875 -8.5 L 8.90625 0 L -0.515625 0 L 17.171875 -39.6875 L 26.25 -39.6875 L 43.984375 0 L 34.359375 0 Z M 27.953125 -15.46875 L 21.65625 -30.671875 L 15.359375 -15.46875 Z M 27.953125 -15.46875 "
               id="path33" />
          </g>
        </g>
      </g>
      <g
         fill="#f26641"
         fill-opacity="1"
         id="g39">
        <g
           transform="translate(132.581702, 830.112833)"
           id="g38">
          <g
             id="g37">
            <path
               d="M 4.703125 -39.6875 L 13.890625 -39.6875 L 13.890625 -7.484375 L 33.78125 -7.484375 L 33.78125 0 L 4.703125 0 Z M 4.703125 -39.6875 "
               id="path36" />
          </g>
        </g>
      </g>
      <g
         fill="#f26641"
         fill-opacity="1"
         id="g42">
        <g
           transform="translate(176.62233, 830.112833)"
           id="g41">
          <g
             id="g40">
            <path
               d="M 19.15625 -15.59375 L 13.828125 -10.03125 L 13.828125 0 L 4.703125 0 L 4.703125 -39.6875 L 13.828125 -39.6875 L 13.828125 -21.140625 L 31.40625 -39.6875 L 41.609375 -39.6875 L 25.171875 -22 L 42.578125 0 L 31.859375 0 Z M 19.15625 -15.59375 "
               id="path39" />
          </g>
        </g>
      </g>
      <g
         fill="#f26641"
         fill-opacity="1"
         id="g45">
        <g
           transform="translate(228.371124, 830.112833)"
           id="g44">
          <g
             id="g43" />
        </g>
      </g>
      <g
         fill="#f26641"
         fill-opacity="1"
         id="g48">
        <g
           transform="translate(254.21817, 830.112833)"
           id="g47">
          <g
             id="g46">
            <path
               d="M 4.703125 -39.6875 L 13.890625 -39.6875 L 13.890625 -7.484375 L 33.78125 -7.484375 L 33.78125 0 L 4.703125 0 Z M 4.703125 -39.6875 "
               id="path45" />
          </g>
        </g>
      </g>
      <g
         fill="#f26641"
         fill-opacity="1"
         id="g51">
        <g
           transform="translate(298.258798, 830.112833)"
           id="g50">
          <g
             id="g49">
            <path
               d="M 35.4375 -7.375 L 35.4375 0 L 4.703125 0 L 4.703125 -39.6875 L 34.6875 -39.6875 L 34.6875 -32.3125 L 13.828125 -32.3125 L 13.828125 -23.703125 L 32.25 -23.703125 L 32.25 -16.546875 L 13.828125 -16.546875 L 13.828125 -7.375 Z M 35.4375 -7.375 "
               id="path48" />
          </g>
        </g>
      </g>
      <g
         fill="#f26641"
         fill-opacity="1"
         id="g54">
        <g
           transform="translate(346.096823, 830.112833)"
           id="g53">
          <g
             id="g52">
            <path
               d="M 17.75 0.6875 C 14.601562 0.6875 11.566406 0.257812 8.640625 -0.59375 C 5.710938 -1.445312 3.363281 -2.550781 1.59375 -3.90625 L 4.703125 -10.828125 C 6.398438 -9.578125 8.421875 -8.570312 10.765625 -7.8125 C 13.109375 -7.0625 15.453125 -6.6875 17.796875 -6.6875 C 20.410156 -6.6875 22.335938 -7.070312 23.578125 -7.84375 C 24.828125 -8.625 25.453125 -9.65625 25.453125 -10.9375 C 25.453125 -11.882812 25.082031 -12.671875 24.34375 -13.296875 C 23.601562 -13.921875 22.65625 -14.421875 21.5 -14.796875 C 20.351562 -15.171875 18.800781 -15.585938 16.84375 -16.046875 C 13.8125 -16.765625 11.332031 -17.484375 9.40625 -18.203125 C 7.476562 -18.921875 5.820312 -20.070312 4.4375 -21.65625 C 3.0625 -23.238281 2.375 -25.351562 2.375 -28 C 2.375 -30.3125 3 -32.398438 4.25 -34.265625 C 5.5 -36.140625 7.378906 -37.625 9.890625 -38.71875 C 12.398438 -39.8125 15.472656 -40.359375 19.109375 -40.359375 C 21.640625 -40.359375 24.113281 -40.054688 26.53125 -39.453125 C 28.945312 -38.847656 31.0625 -37.976562 32.875 -36.84375 L 30.046875 -29.875 C 26.378906 -31.945312 22.710938 -32.984375 19.046875 -32.984375 C 16.472656 -32.984375 14.570312 -32.566406 13.34375 -31.734375 C 12.113281 -30.910156 11.5 -29.816406 11.5 -28.453125 C 11.5 -27.097656 12.207031 -26.085938 13.625 -25.421875 C 15.050781 -24.765625 17.21875 -24.113281 20.125 -23.46875 C 23.144531 -22.75 25.617188 -22.03125 27.546875 -21.3125 C 29.472656 -20.59375 31.125 -19.457031 32.5 -17.90625 C 33.882812 -16.363281 34.578125 -14.269531 34.578125 -11.625 C 34.578125 -9.351562 33.941406 -7.28125 32.671875 -5.40625 C 31.410156 -3.539062 29.515625 -2.054688 26.984375 -0.953125 C 24.453125 0.140625 21.375 0.6875 17.75 0.6875 Z M 17.75 0.6875 "
               id="path51" />
          </g>
        </g>
      </g>
      <g
         fill="#f26641"
         fill-opacity="1"
         id="g57">
        <g
           transform="translate(392.064493, 830.112833)"
           id="g56">
          <g
             id="g55">
            <path
               d="M 17.75 0.6875 C 14.601562 0.6875 11.566406 0.257812 8.640625 -0.59375 C 5.710938 -1.445312 3.363281 -2.550781 1.59375 -3.90625 L 4.703125 -10.828125 C 6.398438 -9.578125 8.421875 -8.570312 10.765625 -7.8125 C 13.109375 -7.0625 15.453125 -6.6875 17.796875 -6.6875 C 20.410156 -6.6875 22.335938 -7.070312 23.578125 -7.84375 C 24.828125 -8.625 25.453125 -9.65625 25.453125 -10.9375 C 25.453125 -11.882812 25.082031 -12.671875 24.34375 -13.296875 C 23.601562 -13.921875 22.65625 -14.421875 21.5 -14.796875 C 20.351562 -15.171875 18.800781 -15.585938 16.84375 -16.046875 C 13.8125 -16.765625 11.332031 -17.484375 9.40625 -18.203125 C 7.476562 -18.921875 5.820312 -20.070312 4.4375 -21.65625 C 3.0625 -23.238281 2.375 -25.351562 2.375 -28 C 2.375 -30.3125 3 -32.398438 4.25 -34.265625 C 5.5 -36.140625 7.378906 -37.625 9.890625 -38.71875 C 12.398438 -39.8125 15.472656 -40.359375 19.109375 -40.359375 C 21.640625 -40.359375 24.113281 -40.054688 26.53125 -39.453125 C 28.945312 -38.847656 31.0625 -37.976562 32.875 -36.84375 L 30.046875 -29.875 C 26.378906 -31.945312 22.710938 -32.984375 19.046875 -32.984375 C 16.472656 -32.984375 14.570312 -32.566406 13.34375 -31.734375 C 12.113281 -30.910156 11.5 -29.816406 11.5 -28.453125 C 11.5 -27.097656 12.207031 -26.085938 13.625 -25.421875 C 15.050781 -24.765625 17.21875 -24.113281 20.125 -23.46875 C 23.144531 -22.75 25.617188 -22.03125 27.546875 -21.3125 C 29.472656 -20.59375 31.125 -19.457031 32.5 -17.90625 C 33.882812 -16.363281 34.578125 -14.269531 34.578125 -11.625 C 34.578125 -9.351562 33.941406 -7.28125 32.671875 -5.40625 C 31.410156 -3.539062 29.515625 -2.054688 26.984375 -0.953125 C 24.453125 0.140625 21.375 0.6875 17.75 0.6875 Z M 17.75 0.6875 "
               id="path54" />
          </g>
        </g>
      </g>
      <g
         fill="#f26641"
         fill-opacity="1"
         id="g60">
        <g
           transform="translate(438.032142, 830.112833)"
           id="g59">
          <g
             id="g58">
            <path
               d="M 7.421875 0.453125 C 5.878906 0.453125 4.578125 -0.0703125 3.515625 -1.125 C 2.453125 -2.1875 1.921875 -3.515625 1.921875 -5.109375 C 1.921875 -6.734375 2.453125 -8.046875 3.515625 -9.046875 C 4.578125 -10.046875 5.878906 -10.546875 7.421875 -10.546875 C 8.972656 -10.546875 10.273438 -10.046875 11.328125 -9.046875 C 12.390625 -8.046875 12.921875 -6.734375 12.921875 -5.109375 C 12.921875 -3.515625 12.390625 -2.1875 11.328125 -1.125 C 10.273438 -0.0703125 8.972656 0.453125 7.421875 0.453125 Z M 7.421875 0.453125 "
               id="path57" />
          </g>
        </g>
      </g>
      <g
         fill="#f26641"
         fill-opacity="1"
         id="g63">
        <g
           transform="translate(462.689005, 830.112833)"
           id="g62">
          <g
             id="g61" />
        </g>
      </g>
      <g
         fill="#f26641"
         fill-opacity="1"
         id="g66">
        <g
           transform="translate(488.536051, 830.112833)"
           id="g65">
          <g
             id="g64">
            <path
               d="M 30.84375 -8.5 L 12.421875 -8.5 L 8.90625 0 L -0.515625 0 L 17.171875 -39.6875 L 26.25 -39.6875 L 43.984375 0 L 34.359375 0 Z M 27.953125 -15.46875 L 21.65625 -30.671875 L 15.359375 -15.46875 Z M 27.953125 -15.46875 "
               id="path63" />
          </g>
        </g>
      </g>
      <g
         fill="#f26641"
         fill-opacity="1"
         id="g69">
        <g
           transform="translate(541.758459, 830.112833)"
           id="g68">
          <g
             id="g67">
            <path
               d="M 23.703125 0.6875 C 19.648438 0.6875 15.988281 -0.191406 12.71875 -1.953125 C 9.457031 -3.710938 6.890625 -6.148438 5.015625 -9.265625 C 3.140625 -12.378906 2.203125 -15.90625 2.203125 -19.84375 C 2.203125 -23.769531 3.140625 -27.289062 5.015625 -30.40625 C 6.890625 -33.53125 9.457031 -35.96875 12.71875 -37.71875 C 15.988281 -39.476562 19.664062 -40.359375 23.75 -40.359375 C 27.1875 -40.359375 30.296875 -39.753906 33.078125 -38.546875 C 35.859375 -37.335938 38.191406 -35.597656 40.078125 -33.328125 L 34.1875 -27.890625 C 31.5 -30.984375 28.171875 -32.53125 24.203125 -32.53125 C 21.742188 -32.53125 19.550781 -31.992188 17.625 -30.921875 C 15.695312 -29.847656 14.191406 -28.347656 13.109375 -26.421875 C 12.035156 -24.492188 11.5 -22.300781 11.5 -19.84375 C 11.5 -17.382812 12.035156 -15.191406 13.109375 -13.265625 C 14.191406 -11.335938 15.695312 -9.832031 17.625 -8.75 C 19.550781 -7.675781 21.742188 -7.140625 24.203125 -7.140625 C 28.171875 -7.140625 31.5 -8.707031 34.1875 -11.84375 L 40.078125 -6.40625 C 38.191406 -4.101562 35.847656 -2.34375 33.046875 -1.125 C 30.253906 0.0820312 27.140625 0.6875 23.703125 0.6875 Z M 23.703125 0.6875 "
               id="path66" />
          </g>
        </g>
      </g>
      <g
         fill="#f26641"
         fill-opacity="1"
         id="g72">
        <g
           transform="translate(593.110532, 830.112833)"
           id="g71">
          <g
             id="g70">
            <path
               d="M 12.921875 -32.203125 L 0.234375 -32.203125 L 0.234375 -39.6875 L 34.8125 -39.6875 L 34.8125 -32.203125 L 22.109375 -32.203125 L 22.109375 0 L 12.921875 0 Z M 12.921875 -32.203125 "
               id="path69" />
          </g>
        </g>
      </g>
      <g
         fill="#f26641"
         fill-opacity="1"
         id="g75">
        <g
           transform="translate(637.944623, 830.112833)"
           id="g74">
          <g
             id="g73" />
        </g>
      </g>
      <g
         fill="#f26641"
         fill-opacity="1"
         id="g78">
        <g
           transform="translate(663.791669, 830.112833)"
           id="g77">
          <g
             id="g76">
            <path
               d="M 40.8125 0 L 40.765625 -23.8125 L 29.078125 -4.1875 L 24.9375 -4.1875 L 13.328125 -23.296875 L 13.328125 0 L 4.703125 0 L 4.703125 -39.6875 L 12.296875 -39.6875 L 27.15625 -15.015625 L 41.78125 -39.6875 L 49.3125 -39.6875 L 49.4375 0 Z M 40.8125 0 "
               id="path75" />
          </g>
        </g>
      </g>
      <g
         fill="#f26641"
         fill-opacity="1"
         id="g81">
        <g
           transform="translate(727.726217, 830.112833)"
           id="g80">
          <g
             id="g79">
            <path
               d="M 23.921875 0.6875 C 19.804688 0.6875 16.09375 -0.195312 12.78125 -1.96875 C 9.476562 -3.75 6.890625 -6.195312 5.015625 -9.3125 C 3.140625 -12.4375 2.203125 -15.945312 2.203125 -19.84375 C 2.203125 -23.726562 3.140625 -27.226562 5.015625 -30.34375 C 6.890625 -33.46875 9.476562 -35.914062 12.78125 -37.6875 C 16.09375 -39.46875 19.804688 -40.359375 23.921875 -40.359375 C 28.035156 -40.359375 31.738281 -39.46875 35.03125 -37.6875 C 38.320312 -35.914062 40.910156 -33.46875 42.796875 -30.34375 C 44.691406 -27.226562 45.640625 -23.726562 45.640625 -19.84375 C 45.640625 -15.945312 44.691406 -12.4375 42.796875 -9.3125 C 40.910156 -6.195312 38.320312 -3.75 35.03125 -1.96875 C 31.738281 -0.195312 28.035156 0.6875 23.921875 0.6875 Z M 23.921875 -7.140625 C 26.265625 -7.140625 28.378906 -7.675781 30.265625 -8.75 C 32.160156 -9.832031 33.644531 -11.335938 34.71875 -13.265625 C 35.800781 -15.191406 36.34375 -17.382812 36.34375 -19.84375 C 36.34375 -22.300781 35.800781 -24.492188 34.71875 -26.421875 C 33.644531 -28.347656 32.160156 -29.847656 30.265625 -30.921875 C 28.378906 -31.992188 26.265625 -32.53125 23.921875 -32.53125 C 21.578125 -32.53125 19.457031 -31.992188 17.5625 -30.921875 C 15.675781 -29.847656 14.191406 -28.347656 13.109375 -26.421875 C 12.035156 -24.492188 11.5 -22.300781 11.5 -19.84375 C 11.5 -17.382812 12.035156 -15.191406 13.109375 -13.265625 C 14.191406 -11.335938 15.675781 -9.832031 17.5625 -8.75 C 19.457031 -7.675781 21.578125 -7.140625 23.921875 -7.140625 Z M 23.921875 -7.140625 "
               id="path78" />
          </g>
        </g>
      </g>
      <g
         fill="#f26641"
         fill-opacity="1"
         id="g84">
        <g
           transform="translate(785.369446, 830.112833)"
           id="g83">
          <g
             id="g82">
            <path
               d="M 29.984375 0 L 22.328125 -11.046875 L 13.890625 -11.046875 L 13.890625 0 L 4.703125 0 L 4.703125 -39.6875 L 21.875 -39.6875 C 25.394531 -39.6875 28.445312 -39.097656 31.03125 -37.921875 C 33.625 -36.753906 35.617188 -35.09375 37.015625 -32.9375 C 38.410156 -30.78125 39.109375 -28.226562 39.109375 -25.28125 C 39.109375 -22.332031 38.398438 -19.789062 36.984375 -17.65625 C 35.566406 -15.519531 33.554688 -13.882812 30.953125 -12.75 L 39.84375 0 Z M 29.8125 -25.28125 C 29.8125 -27.507812 29.09375 -29.21875 27.65625 -30.40625 C 26.226562 -31.601562 24.132812 -32.203125 21.375 -32.203125 L 13.890625 -32.203125 L 13.890625 -18.359375 L 21.375 -18.359375 C 24.132812 -18.359375 26.226562 -18.960938 27.65625 -20.171875 C 29.09375 -21.390625 29.8125 -23.09375 29.8125 -25.28125 Z M 29.8125 -25.28125 "
               id="path81" />
          </g>
        </g>
      </g>
      <g
         fill="#f26641"
         fill-opacity="1"
         id="g87">
        <g
           transform="translate(836.834932, 830.112833)"
           id="g86">
          <g
             id="g85">
            <path
               d="M 35.4375 -7.375 L 35.4375 0 L 4.703125 0 L 4.703125 -39.6875 L 34.6875 -39.6875 L 34.6875 -32.3125 L 13.828125 -32.3125 L 13.828125 -23.703125 L 32.25 -23.703125 L 32.25 -16.546875 L 13.828125 -16.546875 L 13.828125 -7.375 Z M 35.4375 -7.375 "
               id="path84" />
          </g>
        </g>
      </g>
      <g
         fill="#f26641"
         fill-opacity="1"
         id="g90">
        <g
           transform="translate(884.672917, 830.112833)"
           id="g89">
          <g
             id="g88">
            <path
               d="M 7.421875 0.453125 C 5.878906 0.453125 4.578125 -0.0703125 3.515625 -1.125 C 2.453125 -2.1875 1.921875 -3.515625 1.921875 -5.109375 C 1.921875 -6.734375 2.453125 -8.046875 3.515625 -9.046875 C 4.578125 -10.046875 5.878906 -10.546875 7.421875 -10.546875 C 8.972656 -10.546875 10.273438 -10.046875 11.328125 -9.046875 C 12.390625 -8.046875 12.921875 -6.734375 12.921875 -5.109375 C 12.921875 -3.515625 12.390625 -2.1875 11.328125 -1.125 C 10.273438 -0.0703125 8.972656 0.453125 7.421875 0.453125 Z M 7.421875 0.453125 "
               id="path87" />
          </g>
        </g>
      </g>
      <g
         fill="#f26641"
         fill-opacity="1"
         id="g93">
        <g
           transform="translate(909.329699, 830.112833)"
           id="g92">
          <g
             id="g91" />
        </g>
      </g>
      <g
         fill="#f26641"
         fill-opacity="1"
         id="g96">
        <g
           transform="translate(935.176745, 830.112833)"
           id="g95">
          <g
             id="g94">
            <path
               d="M 21.875 -39.6875 C 25.394531 -39.6875 28.445312 -39.097656 31.03125 -37.921875 C 33.625 -36.753906 35.617188 -35.09375 37.015625 -32.9375 C 38.410156 -30.78125 39.109375 -28.226562 39.109375 -25.28125 C 39.109375 -22.375 38.410156 -19.832031 37.015625 -17.65625 C 35.617188 -15.488281 33.625 -13.828125 31.03125 -12.671875 C 28.445312 -11.515625 25.394531 -10.9375 21.875 -10.9375 L 13.890625 -10.9375 L 13.890625 0 L 4.703125 0 L 4.703125 -39.6875 Z M 21.375 -18.421875 C 24.132812 -18.421875 26.226562 -19.015625 27.65625 -20.203125 C 29.09375 -21.398438 29.8125 -23.09375 29.8125 -25.28125 C 29.8125 -27.507812 29.09375 -29.21875 27.65625 -30.40625 C 26.226562 -31.601562 24.132812 -32.203125 21.375 -32.203125 L 13.890625 -32.203125 L 13.890625 -18.421875 Z M 21.375 -18.421875 "
               id="path93" />
          </g>
        </g>
      </g>
      <g
         fill="#f26641"
         fill-opacity="1"
         id="g99">
        <g
           transform="translate(986.472192, 830.112833)"
           id="g98">
          <g
             id="g97">
            <path
               d="M 30.84375 -8.5 L 12.421875 -8.5 L 8.90625 0 L -0.515625 0 L 17.171875 -39.6875 L 26.25 -39.6875 L 43.984375 0 L 34.359375 0 Z M 27.953125 -15.46875 L 21.65625 -30.671875 L 15.359375 -15.46875 Z M 27.953125 -15.46875 "
               id="path96" />
          </g>
        </g>
      </g>
      <g
         fill="#f26641"
         fill-opacity="1"
         id="g102">
        <g
           transform="translate(1039.6946, 830.112833)"
           id="g101">
          <g
             id="g100">
            <path
               d="M 23.75 -14.0625 L 23.75 0 L 14.5625 0 L 14.5625 -14.171875 L -0.796875 -39.6875 L 8.953125 -39.6875 L 19.5625 -22.046875 L 30.15625 -39.6875 L 39.171875 -39.6875 Z M 23.75 -14.0625 "
               id="path99" />
          </g>
        </g>
      </g>
      <g
         fill="#f26641"
         fill-opacity="1"
         id="g105">
        <g
           transform="translate(1087.816035, 830.112833)"
           id="g104">
          <g
             id="g103" />
        </g>
      </g>
      <g
         fill="#f26641"
         fill-opacity="1"
         id="g108">
        <g
           transform="translate(1113.663081, 830.112833)"
           id="g107">
          <g
             id="g106">
            <path
               d="M 17.75 0.6875 C 14.601562 0.6875 11.566406 0.257812 8.640625 -0.59375 C 5.710938 -1.445312 3.363281 -2.550781 1.59375 -3.90625 L 4.703125 -10.828125 C 6.398438 -9.578125 8.421875 -8.570312 10.765625 -7.8125 C 13.109375 -7.0625 15.453125 -6.6875 17.796875 -6.6875 C 20.410156 -6.6875 22.335938 -7.070312 23.578125 -7.84375 C 24.828125 -8.625 25.453125 -9.65625 25.453125 -10.9375 C 25.453125 -11.882812 25.082031 -12.671875 24.34375 -13.296875 C 23.601562 -13.921875 22.65625 -14.421875 21.5 -14.796875 C 20.351562 -15.171875 18.800781 -15.585938 16.84375 -16.046875 C 13.8125 -16.765625 11.332031 -17.484375 9.40625 -18.203125 C 7.476562 -18.921875 5.820312 -20.070312 4.4375 -21.65625 C 3.0625 -23.238281 2.375 -25.351562 2.375 -28 C 2.375 -30.3125 3 -32.398438 4.25 -34.265625 C 5.5 -36.140625 7.378906 -37.625 9.890625 -38.71875 C 12.398438 -39.8125 15.472656 -40.359375 19.109375 -40.359375 C 21.640625 -40.359375 24.113281 -40.054688 26.53125 -39.453125 C 28.945312 -38.847656 31.0625 -37.976562 32.875 -36.84375 L 30.046875 -29.875 C 26.378906 -31.945312 22.710938 -32.984375 19.046875 -32.984375 C 16.472656 -32.984375 14.570312 -32.566406 13.34375 -31.734375 C 12.113281 -30.910156 11.5 -29.816406 11.5 -28.453125 C 11.5 -27.097656 12.207031 -26.085938 13.625 -25.421875 C 15.050781 -24.765625 17.21875 -24.113281 20.125 -23.46875 C 23.144531 -22.75 25.617188 -22.03125 27.546875 -21.3125 C 29.472656 -20.59375 31.125 -19.457031 32.5 -17.90625 C 33.882812 -16.363281 34.578125 -14.269531 34.578125 -11.625 C 34.578125 -9.351562 33.941406 -7.28125 32.671875 -5.40625 C 31.410156 -3.539062 29.515625 -2.054688 26.984375 -0.953125 C 24.453125 0.140625 21.375 0.6875 17.75 0.6875 Z M 17.75 0.6875 "
               id="path105" />
          </g>
        </g>
      </g>
      <g
         fill="#f26641"
         fill-opacity="1"
         id="g111">
        <g
           transform="translate(1159.630731, 830.112833)"
           id="g110">
          <g
             id="g109">
            <path
               d="M 64.6875 -39.6875 L 51.703125 0 L 41.828125 0 L 33.109375 -26.875 L 24.09375 0 L 14.28125 0 L 1.25 -39.6875 L 10.765625 -39.6875 L 19.734375 -11.796875 L 29.078125 -39.6875 L 37.578125 -39.6875 L 46.65625 -11.5625 L 55.890625 -39.6875 Z M 64.6875 -39.6875 "
               id="path108" />
          </g>
        </g>
      </g>
      <g
         fill="#f26641"
         fill-opacity="1"
         id="g114">
        <g
           transform="translate(1235.354271, 830.112833)"
           id="g113">
          <g
             id="g112">
            <path
               d="M 4.703125 -39.6875 L 13.890625 -39.6875 L 13.890625 0 L 4.703125 0 Z M 4.703125 -39.6875 "
               id="path111" />
          </g>
        </g>
      </g>
      <g
         fill="#f26641"
         fill-opacity="1"
         id="g117">
        <g
           transform="translate(1263.751804, 830.112833)"
           id="g116">
          <g
             id="g115">
            <path
               d="M 13.890625 -32.3125 L 13.890625 -21.828125 L 32.25 -21.828125 L 32.25 -14.453125 L 13.890625 -14.453125 L 13.890625 0 L 4.703125 0 L 4.703125 -39.6875 L 34.6875 -39.6875 L 34.6875 -32.3125 Z M 13.890625 -32.3125 "
               id="path114" />
          </g>
        </g>
      </g>
      <g
         fill="#f26641"
         fill-opacity="1"
         id="g120">
        <g
           transform="translate(1309.77616, 830.112833)"
           id="g119">
          <g
             id="g118">
            <path
               d="M 12.921875 -32.203125 L 0.234375 -32.203125 L 0.234375 -39.6875 L 34.8125 -39.6875 L 34.8125 -32.203125 L 22.109375 -32.203125 L 22.109375 0 L 12.921875 0 Z M 12.921875 -32.203125 "
               id="path117" />
          </g>
        </g>
      </g>
      <g
         fill="#f26641"
         fill-opacity="1"
         id="g123">
        <g
           transform="translate(1354.610251, 830.112833)"
           id="g122">
          <g
             id="g121">
            <path
               d="M 7.421875 0.453125 C 5.878906 0.453125 4.578125 -0.0703125 3.515625 -1.125 C 2.453125 -2.1875 1.921875 -3.515625 1.921875 -5.109375 C 1.921875 -6.734375 2.453125 -8.046875 3.515625 -9.046875 C 4.578125 -10.046875 5.878906 -10.546875 7.421875 -10.546875 C 8.972656 -10.546875 10.273438 -10.046875 11.328125 -9.046875 C 12.390625 -8.046875 12.921875 -6.734375 12.921875 -5.109375 C 12.921875 -3.515625 12.390625 -2.1875 11.328125 -1.125 C 10.273438 -0.0703125 8.972656 0.453125 7.421875 0.453125 Z M 7.421875 0.453125 "
               id="path120" />
          </g>
        </g>
      </g>
    </g>
  </g>
</svg>
