<?xml version="1.0" encoding="UTF-8" standalone="no"?>
<svg
   width="2000"
   zoomAndPan="magnify"
   viewBox="0 0 1500 1499.999933"
   height="2000"
   preserveAspectRatio="xMidYMid meet"
   version="1.0"
   id="svg125"
   xmlns="http://www.w3.org/2000/svg"
   xmlns:svg="http://www.w3.org/2000/svg">
  <defs
     id="defs1">
    <g
       id="g1" />
    <clipPath
       id="349ab6594a">
      <path
         d="M 375 2 L 1016 2 L 1016 545.820312 L 375 545.820312 Z M 375 2 "
         clip-rule="nonzero"
         id="path1" />
    </clipPath>
    <clipPath
       clipPathUnits="userSpaceOnUse"
       id="clipPath125">
      <rect
         x="-1.072e-06"
         width="1437"
         y="-7.3030001e-06"
         height="845.00006"
         id="rect125"
         style="stroke-width:0.999997" />
    </clipPath>
    <clipPath
       clipPathUnits="userSpaceOnUse"
       id="clipPath126">
      <rect
         x="-1.072e-06"
         width="1437"
         y="-7.3030001e-06"
         height="845.00006"
         id="rect126"
         style="stroke-width:0.999997" />
    </clipPath>
    <clipPath
       clipPathUnits="userSpaceOnUse"
       id="clipPath127">
      <rect
         x="-1.072e-06"
         width="1437"
         y="-7.3030001e-06"
         height="845.00006"
         id="rect127"
         style="stroke-width:0.999997" />
    </clipPath>
  </defs>
  <g
     clip-path="url(#clipPath127)"
     id="g3"
     transform="matrix(1.9651678,0,0,2.0350608,-623.43341,55.343118)">
    <path
       fill="#f26641"
       d="m 859.82422,350.50391 c -21.73047,-8.73438 -47.41797,-6.16407 -58.48828,-4.42969 -1.51172,0.23828 -3.01953,0.1914 -4.51563,-0.14844 -1.49219,-0.33984 -2.875,-0.94141 -4.14062,-1.80859 -1.125,-0.79688 -2.35547,-1.36719 -3.69532,-1.71094 -1.33593,-0.34766 -2.6875,-0.44141 -4.05859,-0.28906 -7.02734,0.78906 -10.10156,7.61328 -18.33594,7.76953 -10.5664,0.19922 -11.96875,-5.1836 -17.71875,-6.52735 -0.35937,-0.0742 -0.72265,-0.10937 -1.08984,-0.10546 -0.36719,0.004 -0.73047,0.0469 -1.08594,0.1289 -0.35937,0.0781 -0.70703,0.19531 -1.03906,0.34766 -0.33203,0.15625 -0.64844,0.34375 -0.94141,0.5625 -0.29297,0.21875 -0.55859,0.46875 -0.80078,0.74609 -0.24219,0.27735 -0.44922,0.57422 -0.6289,0.89844 -0.17579,0.32031 -0.31641,0.65625 -0.42188,1.00781 -0.10937,0.35156 -0.17578,0.71094 -0.20703,1.07422 0,12.89844 22.06641,13.98438 21.90625,42.26953 -0.0703,13.08985 -8.39063,43.81641 -70.39453,68.0625 -75.70313,29.59766 -94.85938,28.90235 -101.73438,11.89063 -0.13281,-0.32422 -0.34765,-0.58594 -0.64453,-0.78125 -0.29687,-0.19532 -0.62109,-0.28907 -0.97265,-0.28125 -0.35547,0.008 -0.67579,0.11718 -0.96485,0.32422 -0.28515,0.20703 -0.48828,0.47656 -0.60547,0.80859 -11.5,34.08984 12.35938,75.67969 104.30078,75.67969 100.71875,0 206.64844,-59.26563 164.5625,-153.38282 -0.0586,-0.11718 -0.0742,-0.23828 -0.0508,-0.36718 0.0274,-0.12891 0.0859,-0.23438 0.1836,-0.32032 0.10156,-0.0859 0.21484,-0.1289 0.34375,-0.13671 0.1289,-0.008 0.25,0.0273 0.35547,0.0976 6.57812,4.32031 30.80078,23.59375 23.26171,69.26563 30.14063,-14.60547 46.91016,-52.1875 43.8125,-90.44141 -2.48437,-30.76953 -39.16015,-46.92969 -66.19921,-20.19922 z m -28.59375,-84.53125 c 41.03906,0 91.51562,28.16406 110.48828,62.3125 6.99219,12.58984 10.03516,32.5 1.38672,49.78906 -0.14063,0.29297 -0.35547,0.5039 -0.65235,0.63672 -0.29296,0.13281 -0.59375,0.15625 -0.90625,0.0664 -0.3125,-0.0859 -0.55859,-0.26172 -0.73828,-0.53125 -0.18359,-0.26562 -0.25781,-0.5625 -0.22265,-0.88281 1.97265,-19.44141 -7.25782,-54.67969 -52.6211,-54.84375 -2.91797,0.0156 -5.8125,0.26563 -8.6914,0.74609 -2.875,0.48438 -5.69532,1.19532 -8.45703,2.13282 -2.76172,0.9375 -5.42969,2.08984 -8.00782,3.45703 -2.57422,1.36719 -5.02343,2.93359 -7.34765,4.69922 -9.84766,-2.75782 -30.75391,-4.4961 -41.63282,-3.56641 C 782.75,316.9375 786.79687,265.96484 831.23047,265.96484 Z m 57.1875,38.07031 c 0.13672,0.0391 0.26953,0.0312 0.39844,-0.0274 0.1289,-0.0586 0.22656,-0.15234 0.28906,-0.27734 0.0586,-0.12891 0.0742,-0.26172 0.0391,-0.39844 -0.0352,-0.13672 -0.11328,-0.24609 -0.22656,-0.32812 -45.17969,-32.00781 -79.47656,-23.33203 -81.60938,-7.51172 -0.53515,4 1.55469,10.56641 9.94922,9.63281 8.82031,-18.72265 57.71094,-5.21875 71.16016,-1.08984 z M 706.29297,57.585938 c 8.73437,-3.335938 14.35156,-8.933594 16.5,-14.546876 -1.54688,-7.59375 0.96484,-17.320312 4.21875,-19.796874 3.22656,23.226562 20.76953,52.347656 25.44922,59.785156 8.0625,-3.222656 16.35937,-5.621094 24.89453,-7.199219 C 742.55078,38.71875 744.6875,3.511719 729.41797,2.175781 724.48437,1.75 718.32031,4.238281 717.42969,16.046875 c -1.34375,17.902344 -5.57032,29.824219 -13.57813,37.839844 -0.17969,0.1875 -0.32031,0.394531 -0.42578,0.632812 -0.10937,0.234375 -0.17187,0.480469 -0.19531,0.738281 -0.0234,0.253907 0,0.507813 0.0625,0.757813 0.0625,0.25 0.16406,0.484375 0.30859,0.699219 0.14063,0.214844 0.31641,0.398437 0.52344,0.554687 0.20312,0.15625 0.42969,0.273438 0.67578,0.351563 0.24609,0.07813 0.49609,0.117187 0.75391,0.109375 0.25781,-0.0078 0.50781,-0.05469 0.75,-0.144531 z m -55.65625,27.464843 c -0.26172,0.132813 -0.53906,0.21875 -0.83203,0.257813 -0.29297,0.03516 -0.58203,0.02344 -0.8711,-0.03906 -0.28515,-0.0625 -0.55468,-0.171875 -0.80468,-0.324219 -0.25,-0.15625 -0.46875,-0.347656 -0.65235,-0.578124 -0.18359,-0.230469 -0.32422,-0.484376 -0.41797,-0.761719 -0.0976,-0.28125 -0.14453,-0.566407 -0.14062,-0.859375 0,-0.296875 0.0547,-0.582032 0.15625,-0.855469 0.10156,-0.277344 0.24219,-0.53125 0.43359,-0.757813 8.22266,-9.808593 11.80469,-23.628906 11.55078,-43.902343 -0.16406,-13.375 6.52735,-16.789063 12.1211,-16.789063 17.3125,0 14.64453,36.296875 57.45312,74.617188 -7.74609,4.792968 -15.10547,10.121093 -22.07812,15.984373 0,0 -29.16407,-36.832029 -35.99219,-66.667967 -3.41406,3.109375 -5.28125,14.296875 -2.79688,22.6875 -1.86328,6.523438 -7.63281,13.371094 -17.125,17.988281 z M 425.19531,398.41406 c -13.63672,1.27344 -50.71484,-19.33984 -49.57812,-77.12109 1.03906,-53.14063 36.51562,-174.82031 123.6914,-202.01563 37.29688,-36.050778 87.64844,-63.08984 129.60157,-24.863278 39.78515,6.078128 54.50781,30.562498 57.29296,35.925778 -8.1289,8.67188 -15.51953,17.92969 -22.17578,27.77735 L 662.5,160.41406 c -8.89844,-11.4375 -42.19141,-0.45703 -41.80469,-34.57031 -0.004,-0.27344 -0.13281,-0.45312 -0.39062,-0.54297 -0.25782,-0.0898 -0.47266,-0.0312 -0.64453,0.17969 -8.41016,10.47265 -3.87891,24.44922 1.92578,29.3125 -1.34766,1.96875 -2.96094,3.6875 -4.83985,5.16015 -1.8789,1.46875 -3.93359,2.6211 -6.16797,3.45704 -1.21484,-10 -18.98046,-51.63672 -69.4414,-47.34375 -0.14063,0.0117 -0.26172,0.0703 -0.35938,0.17187 -0.0976,0.0977 -0.15234,0.21875 -0.16406,0.35938 -0.008,0.14062 0.0273,0.26953 0.10938,0.38281 0.082,0.11328 0.1914,0.1875 0.32812,0.22266 15.12891,3.33593 69.21875,20.0664 53.69141,86.43749 -0.42188,1.8086 -0.57032,3.63672 -0.44532,5.48829 0.125,1.85546 0.51954,3.64843 1.17969,5.38281 0.23047,0.61328 0.40235,1.24609 0.51563,1.89453 0.11328,0.64453 0.16015,1.29687 0.14843,1.95312 -0.0156,0.65625 -0.0898,1.3086 -0.22656,1.94922 -0.14062,0.64453 -0.33984,1.26563 -0.59765,1.8711 -0.25782,0.60156 -0.57032,1.17578 -0.9375,1.72265 -0.36719,0.54297 -0.78516,1.04688 -1.25,1.51172 -0.46485,0.46094 -0.97266,0.87891 -1.51563,1.24219 -0.54687,0.36719 -1.12109,0.67969 -1.72656,0.9375 -7.90625,4.1875 -11.01172,11.96094 -7.28125,24.08203 3.10547,9.63281 0.30859,17.09375 -5.28516,17.09375 -4.66015,0 -5.37109,-5.92187 -6.21484,-8.39453 -3.73047,-10.87891 -14.14063,-22.53516 -35.89844,-19.27344 -25.42578,3.81641 -75.05469,36.36328 -109.55078,124.00781 -4.58594,11.64454 -4.69531,24.53125 0.625,30.48438 0.21484,0.23437 0.35156,0.51172 0.40625,0.82422 0.0586,0.3125 0.0312,0.61719 -0.0859,0.91406 -0.11328,0.30078 -0.29687,0.54297 -0.55078,0.73828 -0.25391,0.19141 -0.53906,0.30469 -0.85547,0.33985 z m -21.24609,-37.71875 c 0.59375,-11.90625 2.85547,-23.48828 6.78515,-34.74219 30.15235,-87.64062 89.98438,-114.625 112.82032,-117.47656 29.83203,-3.73047 36.82812,7.45703 36.82812,7.45703 1.67578,-3.23047 2.86719,-6.625 3.58203,-10.1914 0.71485,-3.56641 0.91797,-7.16407 0.61328,-10.78907 -0.92968,-14.44921 -13.99609,-24.10546 -30.76953,-24.70312 -62.52343,-2.23438 -123.30078,85.14062 -132.70703,164.09766 -0.80078,6.72265 -1.16797,17.98437 1.72266,26.51171 0.043,0.13282 0.125,0.23438 0.24219,0.3086 0.12109,0.0742 0.25,0.10156 0.38671,0.082 0.13672,-0.0234 0.25391,-0.082 0.34766,-0.1875 0.0937,-0.10547 0.14063,-0.22656 0.14844,-0.36719 z M 986.78125,121.80078 c 34.24215,31.47656 42.82035,108.58984 -0.20703,141.17188 -0.27735,0.20703 -0.58985,0.32421 -0.9375,0.35156 -0.34375,0.0312 -0.67188,-0.0352 -0.98047,-0.19141 -0.30859,-0.16015 -0.55078,-0.38672 -0.73047,-0.68359 -0.17969,-0.29688 -0.26562,-0.6211 -0.26172,-0.96875 0.082,-1.70703 -0.20312,-3.35156 -0.85547,-4.9336 -11.49609,6.54688 -18.07812,19.17188 -25.61718,22.91016 -0.31641,0.15234 -0.64844,0.20313 -0.9961,0.16016 -0.35156,-0.0469 -0.66015,-0.17969 -0.92578,-0.40625 -0.26953,-0.22657 -0.45703,-0.50782 -0.55859,-0.84375 -0.10547,-0.33203 -0.10938,-0.67188 -0.0117,-1.00782 0.67969,-2.09765 0.83594,-4.23046 0.46094,-6.40234 -7.80079,1.03516 -14.21875,10.68359 -21.17188,12.89844 -0.34375,0.10547 -0.6875,0.10937 -1.03516,0.0117 -0.34375,-0.10157 -0.63281,-0.28907 -0.86718,-0.5625 -0.23828,-0.27344 -0.375,-0.58594 -0.42188,-0.94532 -0.0469,-0.35546 0.008,-0.69531 0.16406,-1.01953 1.02735,-2.30078 1.69141,-4.69922 1.98438,-7.19922 -8.39453,-1.34765 -16.80078,5.36719 -23.77734,5.90235 -0.375,0.0273 -0.72657,-0.0547 -1.05079,-0.2461 -0.32421,-0.1914 -0.5664,-0.45703 -0.72265,-0.79687 -0.16016,-0.34375 -0.20703,-0.69922 -0.14063,-1.07031 0.0625,-0.3711 0.22657,-0.69141 0.48828,-0.96094 0.76172,-0.63672 1.34766,-1.40625 1.75391,-2.3125 0.40234,-0.90625 0.58984,-1.85547 0.55469,-2.84766 -7.37891,-2.03125 -15.92188,1.32422 -22.07422,-0.39062 -0.33984,-0.0899 -0.625,-0.26172 -0.86328,-0.51953 -0.23828,-0.25782 -0.38672,-0.5586 -0.44922,-0.90625 -0.0586,-0.34375 -0.0234,-0.67969 0.10937,-1 0.13672,-0.32422 0.34766,-0.58594 0.63282,-0.78907 0.89453,-0.52734 1.67187,-1.1914 2.33984,-1.98437 0.66797,-0.79688 1.1875,-1.67969 1.55469,-2.64844 -5.33203,-3.8789 -15.60547,-3.55859 -20.02344,-7.32031 -0.27344,-0.24219 -0.45703,-0.53516 -0.55078,-0.88672 -0.0937,-0.35156 -0.082,-0.69922 0.0312,-1.04297 0.11719,-0.34375 0.31641,-0.625 0.60156,-0.84765 0.28906,-0.22266 0.61328,-0.34766 0.97266,-0.37891 2.3164,-0.28906 4.45312,-1.07813 6.40234,-2.36328 -11.88672,-3.26953 -14.45312,-12.82031 -14.45312,-12.82031 -5.1211,2.33203 -13.05078,2.09765 -17.71485,-0.9336 -0.23047,1.64063 -0.0976,3.25391 0.39453,4.83203 0.4961,1.58203 1.30469,2.98047 2.4336,4.19532 0.20312,0.23828 0.32812,0.51562 0.37109,0.82812 0.043,0.30859 0,0.60938 -0.13672,0.89453 -0.13281,0.28125 -0.33203,0.50781 -0.60156,0.67188 -0.26953,0.16797 -0.55859,0.24609 -0.875,0.23828 -6.48828,-0.28516 -12.04297,-4.74219 -12.48828,-10.32813 5.82812,-8.72265 11.01953,-17.80859 15.57812,-27.25781 l 9.3711,-1.54297 c 6.15625,-0.99609 12.14844,-2.60156 17.97656,-4.82031 5.82813,-2.22266 11.37109,-5.00781 16.62891,-8.35938 h 0.0156 c 55.81641,11.51172 80.20703,-19.79296 83.90625,-46.23046 0.0391,-0.2461 -0.004,-0.47266 -0.13281,-0.6836 -0.125,-0.21094 -0.30859,-0.35547 -0.54297,-0.42969 -0.23437,-0.0781 -0.46484,-0.0664 -0.69531,0.0312 -0.22656,0.0937 -0.39453,0.25391 -0.50391,0.47657 -11.73047,22.52734 -38.00781,38.3125 -64.5625,33 -0.12109,-0.0234 -0.20312,-0.0937 -0.23828,-0.21485 -0.0352,-0.12109 -0.008,-0.22265 0.082,-0.30859 15.63281,-15.07422 25.70313,-61.35547 -2.96875,-87.515625 -0.17969,-0.167969 -0.39062,-0.253906 -0.63672,-0.265625 -0.24609,-0.01172 -0.46484,0.05859 -0.66015,0.207031 -0.19532,0.148438 -0.32032,0.34375 -0.3711,0.582031 -0.0547,0.242188 -0.0234,0.46875 0.0899,0.6875 2.59375,4.917968 4.54297,10.078128 5.84765,15.484378 1.30078,5.40625 1.91797,10.88672 1.84766,16.44922 0,40.46093 -28.84766,61.53906 -57.65234,66.27343 13.13671,-34.16406 8.17187,-85.61328 -35.00391,-98.410152 -0.25,-0.07031 -0.48828,-0.05078 -0.72266,0.05859 -0.23437,0.113281 -0.39843,0.289063 -0.49609,0.527344 -0.10156,0.238281 -0.10547,0.480469 -0.0195,0.722656 0.0859,0.242188 0.24219,0.425781 0.46875,0.550781 20.69531,11.414071 28,29.160161 28,50.246101 0,28.15234 -14.16797,117.44921 -164.55078,186.17187 -0.17578,0.082 -0.35938,0.10547 -0.55078,0.0703 -0.19141,-0.0312 -0.35547,-0.11328 -0.4961,-0.25 -0.13672,-0.13281 -0.22656,-0.29687 -0.26562,-0.48437 -0.0391,-0.19141 -0.0234,-0.375 0.0508,-0.55469 2.33984,-5.58203 9.41797,-17.84766 21.21875,-19.85156 27.78906,-4.72656 30.36719,-22.1836 30.90625,-26.91797 0.043,-0.38672 0.12109,-0.76953 0.23437,-1.14453 0.11328,-0.375 0.25782,-0.73438 0.4375,-1.08203 0.17969,-0.34766 0.39063,-0.67578 0.63282,-0.98438 0.23828,-0.30859 0.5039,-0.58984 0.79687,-0.85156 0.29297,-0.25781 0.60547,-0.48828 0.94141,-0.69141 0.33593,-0.19922 0.68359,-0.37109 1.05078,-0.50781 0.36719,-0.13672 0.74219,-0.23828 1.1289,-0.30859 0.38282,-0.0664 0.76954,-0.10157 1.16016,-0.0977 h 0.0625 c 17.82422,0 32.71094,-12.69141 36.21484,-30.86719 3.67188,-19.0625 -6.36328,-36.33203 -25.5625,-44.01172 -0.63281,-0.25781 -1.27734,-0.5039 -1.9375,-0.75781 -5.49609,-2.10156 -7.27734,-2.97265 -9.35156,-9.39844 -6.48828,-20.13671 -24.59765,-32.34375 -45.33984,-32.34375 -6.72266,0.0352 -13.21875,1.27344 -19.48828,3.71875 -0.17969,0.0703 -0.33203,0.0312 -0.45313,-0.11718 -0.125,-0.15235 -0.13281,-0.3086 -0.0234,-0.47266 8.10938,-11.92969 48.9961,-67.816408 108.07422,-75.304689 15.38672,-21.441406 37.29688,-30.300782 59.4375,-30.300782 5.48828,0 10.91407,0.566407 16.28125,1.703126 5.36719,1.136718 10.5586,2.816406 15.57422,5.042968 10.40625,-8.273437 27.59766,-15.136718 43.20313,-15.136718 35.04297,0 66.42968,27.972656 66.42968,65.582035 0,1.46484 -0.0586,2.92578 -0.16015,4.38672 z m -224.11719,58.04297 c 32.52344,-11.22266 58.95313,-40.15234 59.25,-57.14844 0.16797,-9.8125 -7.92969,-19.57812 -19.11719,-12.58593 0,0 15.5625,23.5664 -41.02343,68.08984 -0.1836,0.14453 -0.29688,0.32812 -0.34375,0.55469 -0.0469,0.22656 -0.0117,0.4414 0.0976,0.64453 0.10938,0.20312 0.27344,0.34765 0.48828,0.42968 0.21485,0.0859 0.42969,0.0898 0.64844,0.0156 z M 895.5,234.92578 c 31.61719,29.45703 101.53906,15.39453 102.78516,-39.94531 0.008,-0.25 -0.0664,-0.46875 -0.22266,-0.66406 -0.15625,-0.19141 -0.35547,-0.3125 -0.59766,-0.35938 -0.24609,-0.0469 -0.47656,-0.008 -0.6914,0.11719 -0.21485,0.12109 -0.36719,0.30078 -0.44922,0.53515 -13.78516,38.88672 -61.5625,52.72657 -99.76172,38.63672 -0.22656,-0.0859 -0.45313,-0.0898 -0.67969,-0.0156 -0.23047,0.0781 -0.41015,0.21484 -0.53906,0.42187 -0.12891,0.20313 -0.17578,0.42188 -0.14844,0.66407 0.0274,0.23828 0.12891,0.4414 0.30469,0.60937 z M 609.79687,395.41797 c -0.75781,0.51953 -1.5664,0.92969 -2.43359,1.23437 -0.86328,0.30078 -1.75391,0.48828 -2.66797,0.55469 -0.91406,0.0703 -1.82031,0.0156 -2.72265,-0.15625 -0.89844,-0.17187 -1.76172,-0.45703 -2.58594,-0.85547 -21.05469,29.75781 -62.31641,123.92578 -108.77735,122.14063 -10.01953,0 -19.55859,-9.22266 -17.57421,-20.58203 0.0391,-0.22266 0.14843,-0.40625 0.32031,-0.55469 0.17187,-0.14453 0.37109,-0.21875 0.59765,-0.22266 0.22657,-0.004 0.42579,0.0664 0.60547,0.20703 0.17578,0.14063 0.28907,0.32032 0.33594,0.54297 1.44531,7.35938 6.44531,14.39453 15.71484,14.39453 21.66797,0 49.50391,-23.04687 113.91407,-146.46875 0.17578,-0.33203 0.16015,-0.65625 -0.043,-0.96875 -0.20313,-0.3164 -0.49219,-0.46093 -0.86719,-0.4414 -17.98828,1.29687 -25.78906,23.17187 -42.25,26.04687 -0.21875,0.0391 -0.42187,0.004 -0.61719,-0.10156 -0.1914,-0.10938 -0.33203,-0.26172 -0.41797,-0.46484 -0.0859,-0.20313 -0.0977,-0.41407 -0.0391,-0.625 0.0586,-0.21485 0.17578,-0.38282 0.35547,-0.51563 13.61328,-10.15234 12.26953,-20.05859 20.65234,-29.60156 0.13282,-0.14844 0.21094,-0.32031 0.23438,-0.51953 0.0234,-0.19922 -0.0117,-0.38672 -0.10938,-0.5625 -0.0937,-0.17578 -0.23046,-0.3086 -0.41015,-0.39844 -0.17969,-0.0859 -0.3711,-0.11328 -0.56641,-0.082 -12.7539,2.28906 -16.41406,21.51953 -31.04687,24.18359 -0.21485,0.0352 -0.41407,0 -0.60547,-0.10156 -0.19141,-0.10156 -0.33203,-0.25391 -0.42188,-0.44922 -0.0859,-0.19922 -0.10547,-0.40625 -0.0508,-0.61719 0.0508,-0.20703 0.16406,-0.38281 0.33203,-0.51562 12.97266,-10.32813 11.14063,-22.35156 20.98828,-32.71875 0.15235,-0.15235 0.23829,-0.33985 0.26563,-0.55078 0.0234,-0.21485 -0.0195,-0.41407 -0.13281,-0.60157 -0.11328,-0.18359 -0.26953,-0.3125 -0.47266,-0.39062 -0.19922,-0.0781 -0.40234,-0.0859 -0.60937,-0.0195 -9.98047,2.98437 -22.78516,13.60937 -28.35157,24.60937 0,0 -5.59375,2.01953 -9.32031,-0.92968 -21.75781,17.08984 -67.75781,76.60546 -106.91406,76.60546 -13.94141,0 -21.38672,-12.73046 -17.70313,-22.35156 0.0859,-0.21094 0.23047,-0.37109 0.4336,-0.48047 0.19922,-0.10547 0.41406,-0.13672 0.63672,-0.0898 0.22265,0.043 0.40625,0.15625 0.54687,0.33594 0.14453,0.17968 0.21094,0.38281 0.20703,0.60937 -0.043,7.375 3.11328,15.44922 15.87891,15.44922 43.53906,0 101.5,-91.42969 159.25,-128.87891 0.21094,-0.13671 0.42578,-0.13671 0.64062,-0.008 0.21485,0.13281 0.3125,0.32422 0.28907,0.57422 -0.26172,2.95703 0.0898,10.11719 9.19921,12.07422 14.56641,3.12891 46.60157,-14.73828 58.5586,-19.96875 0.12109,-0.0547 0.25,-0.0781 0.38672,-0.0664 21.3789,0.98438 43.30468,-13.55859 42.0664,-23.16797 -1.43359,-11.09375 -13.05468,-6.52343 -18.33984,-3.72656 -18.94141,10.02735 -80.49609,45.0625 -80.49609,29.52735 0,-5.51563 10.02343,-17.52344 11.35546,-19.09766 0.0977,-0.11719 0.16016,-0.24609 0.1875,-0.39844 3.39454,-17.08984 40.35157,-111.66797 90.71094,-111.66797 14.91406,0 28.59375,8.08203 33.875,23.61328 4.5,13.24219 11.69922,15.36329 18.33594,18.02735 32.63281,13.05078 18.64844,56.25 -10.56641,51.58984 -10.43359,-1.66406 -14.28515,6.80078 -13.67187,13.67578 0.69531,7.84766 -4.66406,18.57032 -19.89453,19.26953 -15.03907,0.69141 -19.07422,16.02735 -25.6211,13.86329 -0.32422,-0.11719 -0.6289,-0.0781 -0.91015,0.11328 -12.91407,9.375 -5.84375,22.78125 -36.07422,36.86328 -0.21094,0.0976 -0.42578,0.11719 -0.65235,0.0586 -0.22265,-0.0625 -0.40234,-0.1875 -0.53125,-0.38281 -0.13281,-0.19141 -0.1875,-0.40234 -0.16015,-0.63281 0.0234,-0.23047 0.12109,-0.42969 0.28906,-0.58985 3.39063,-3.28515 6.27734,-6.96484 8.65625,-11.04297 2.37891,-4.07812 4.16406,-8.39843 5.35547,-12.96875 0.0508,-0.19531 0.0391,-0.39062 -0.0352,-0.57812 -0.0742,-0.19141 -0.19922,-0.33984 -0.37109,-0.44922 -0.17188,-0.10937 -0.35938,-0.16016 -0.5625,-0.14844 -0.20313,0.0117 -0.38281,0.0859 -0.53906,0.21485 -8.19922,6.73047 -38.46485,33.72656 -45.03516,70.3164 z m 35.38672,-126.0625 c 35.25782,-14.07031 68.29688,-44.07031 72.46094,-57.14844 3.26172,-10.25781 -9.75391,-15.98437 -16.00781,-1.55469 -6.7461,15.5625 -32.77344,39.09375 -57.35938,57.0625 -0.1914,0.14063 -0.3125,0.32813 -0.36328,0.5586 -0.0508,0.23047 -0.0195,0.45312 0.0977,0.66015 0.11328,0.20703 0.28125,0.35157 0.5039,0.42969 0.22266,0.082 0.44532,0.0781 0.66797,-0.008 z m -48.02343,169.39062 c 10.72265,-35.39843 99.97656,-80.0664 135.24609,-71.76562 10.56641,2.48437 21.63281,15.66015 13.33984,29.92187 -16.8164,28.91016 -108.60156,2.3711 -138.98437,43.96485 -3.64063,4.98047 -4.5625,8.85547 -4.69141,11.23047 -0.0195,0.30468 -0.11719,0.58593 -0.28906,0.83984 -0.17188,0.25781 -0.39844,0.44922 -0.67188,0.58203 -0.27734,0.13281 -0.57031,0.1875 -0.8789,0.16016 -0.30469,-0.0234 -0.58203,-0.125 -0.83594,-0.30078 -2.9375,-2.10157 -4.75781,-6.31641 -2.24219,-14.62891 z m 63.40625,-38.50781 c 16.69531,-12.15625 64.26562,-28.51562 71.30078,-17.69922 4.55078,6.98438 -2.02344,13.05469 -19.24219,10.29297 -19.0625,-3.05469 -44.30469,5.13672 -51.70313,8.03906 -0.19531,0.0781 -0.34765,0.0234 -0.44921,-0.16015 -0.10547,-0.1836 -0.0742,-0.33985 0.0937,-0.47266 z M 534.55469,257.04687 c -30.51953,7.23829 -31.64844,96.84766 -77.24219,112.8086 -5.46094,1.91015 -9.18359,1.6914 -11.35547,1.16797 -0.28125,-0.0664 -0.55859,-0.0586 -0.83594,0.0273 -0.27343,0.0859 -0.50781,0.23438 -0.70312,0.44922 -0.19531,0.21484 -0.32031,0.46094 -0.38281,0.74219 -0.0586,0.28515 -0.043,0.5625 0.0469,0.83593 1.08984,3.20704 4.37891,5.98047 12.51953,5.98047 34.69531,0 99.6836,-67.89062 99.6836,-101.87109 0,-10.99219 -6.67188,-23.70703 -21.72657,-20.13672 z m 9.1289,16.35938 c -5.03515,-5.97266 -12.27343,-1.73047 -14.47265,14.47266 -2.44141,17.94921 -16.65625,38.38281 -21.27344,44.23046 -0.125,0.15625 -0.11719,0.3086 0.0195,0.45313 0.13672,0.14453 0.28516,0.15625 0.44922,0.043 15.45312,-11.6875 43.07422,-49.94141 35.27734,-59.19922 z m 287.54688,149.51562 c -13.77344,62.96875 -145.20703,95.40235 -203.01563,80.59375 -0.15625,-0.0273 -0.28125,-0.10156 -0.375,-0.23046 -0.0937,-0.12891 -0.125,-0.27344 -0.10156,-0.42969 0.0273,-0.15625 0.10156,-0.28125 0.23047,-0.375 0.12891,-0.0937 0.26953,-0.125 0.42578,-0.10156 46.78906,2.76171 183.45703,-40.55469 167.09766,-118 22.69531,-9.9375 42.27343,8.70703 35.73828,38.54296 z m 0,0"
       fill-opacity="1"
       fill-rule="evenodd"
       id="path3" />
  </g>
  <g
     fill="#f26641"
     fill-opacity="1"
     id="g45"
     transform="translate(48,327)">
    <g
       transform="translate(228.37112,830.11283)"
       id="g44">
      <g
         id="g43" />
    </g>
  </g>
  <g
     fill="#f26641"
     fill-opacity="1"
     id="g63"
     transform="translate(48,327)">
    <g
       transform="translate(462.689,830.11283)"
       id="g62">
      <g
         id="g61" />
    </g>
  </g>
  <g
     fill="#f26641"
     fill-opacity="1"
     id="g75"
     transform="translate(48,327)">
    <g
       transform="translate(637.94462,830.11283)"
       id="g74">
      <g
         id="g73" />
    </g>
  </g>
  <g
     fill="#f26641"
     fill-opacity="1"
     id="g93"
     transform="translate(48,327)">
    <g
       transform="translate(909.3297,830.11283)"
       id="g92">
      <g
         id="g91" />
    </g>
  </g>
  <g
     fill="#f26641"
     fill-opacity="1"
     id="g105"
     transform="translate(48,327)">
    <g
       transform="translate(1087.816,830.11283)"
       id="g104">
      <g
         id="g103" />
    </g>
  </g>
  <g
     id="g127"
     transform="translate(-1.7162471,295.1945)">
    <g
       fill="#414042"
       fill-opacity="1"
       id="g6"
       transform="translate(48,327)"
       clip-path="url(#clipPath126)">
      <g
         transform="translate(0.255775,722.84179)"
         id="g5">
        <g
           id="g4">
          <path
             d="m 72.5,2.078125 c -12.375,0 -23.5625,-2.6875 -33.5625,-8.0625 -10,-5.375 -17.867188,-12.832031 -23.59375,-22.375 -5.71875,-9.539063 -8.578125,-20.320313 -8.578125,-32.34375 0,-12.019531 2.859375,-22.800781 8.578125,-32.34375 5.726562,-9.539065 13.59375,-17.000005 23.59375,-22.375005 10,-5.375 21.242188,-8.0625 33.734375,-8.0625 10.519531,0 20.03125,1.85157 28.531255,5.54688 8.5,3.69922 15.64062,9.01562 21.42187,15.95312 l -18.04687,16.656255 c -8.210942,-9.476563 -18.382818,-14.21875 -30.51563,-14.21875 -7.523438,0 -14.230469,1.648437 -20.125,4.9375 -5.898438,3.292969 -10.496094,7.886719 -13.796875,13.78125 -3.292969,5.898437 -4.9375,12.605469 -4.9375,20.125 0,7.511719 1.644531,14.21875 4.9375,20.125 3.300781,5.898437 7.898437,10.492187 13.796875,13.78125 5.894531,3.292969 12.601562,4.9375 20.125,4.9375 12.132812,0 22.304688,-4.796875 30.51563,-14.390625 l 18.04687,16.65625 c -5.78125,7.054688 -12.95312,12.429688 -21.51562,16.125 C 92.554688,0.226562 83.019531,2.078125 72.5,2.078125 Z m 0,0"
             id="path4" />
        </g>
      </g>
    </g>
    <g
       fill="#414042"
       fill-opacity="1"
       id="g9"
       transform="translate(48,327)">
      <g
         transform="translate(158.60435,722.84179)"
         id="g8">
        <g
           id="g7">
          <path
             d="M 14.390625,-121.40625 H 42.5 v 98.515625 h 60.875 V 0 H 14.390625 Z m 0,0"
             id="path6" />
        </g>
      </g>
    </g>
    <g
       fill="#414042"
       fill-opacity="1"
       id="g12"
       transform="translate(48,327)">
      <g
         transform="translate(294.57988,722.84179)"
         id="g11">
        <g
           id="g10">
          <path
             d="M 94.34375,-26.015625 H 37.984375 L 27.234375,0 H -1.5625 l 54.109375,-121.40625 h 27.75 L 134.59375,0 H 105.10938 Z M 85.5,-47.34375 66.25,-93.828125 47,-47.34375 Z m 0,0"
             id="path9" />
        </g>
      </g>
    </g>
    <g
       fill="#414042"
       fill-opacity="1"
       id="g15"
       transform="translate(48,327)">
      <g
         transform="translate(458.6518,722.84179)"
         id="g14">
        <g
           id="g13">
          <path
             d="M 197.89062,-121.40625 158.17187,0 H 128 L 101.28125,-82.203125 73.71875,0 H 43.703125 L 3.8125,-121.40625 h 29.140625 l 27.40625,85.328125 28.609375,-85.328125 h 26.01563 l 27.74999,86.03125 28.28125,-86.03125 z m 0,0"
             id="path12" />
        </g>
      </g>
    </g>
    <g
       fill="#414042"
       fill-opacity="1"
       id="g18"
       transform="translate(48,327)">
      <g
         transform="translate(691.57726,722.84179)"
         id="g17">
        <g
           id="g16">
          <path
             d="M 54.28125,2.078125 C 44.6875,2.078125 35.410156,0.78125 26.453125,-1.8125 17.492188,-4.414062 10.296875,-7.800781 4.859375,-11.96875 l 9.53125,-21.15625 c 5.207031,3.8125 11.394531,6.875 18.5625,9.1875 7.164063,2.3125 14.332031,3.46875 21.5,3.46875 7.976563,0 13.875,-1.179688 17.6875,-3.546875 3.820313,-2.375 5.734375,-5.523437 5.734375,-9.453125 0,-2.894531 -1.132812,-5.296875 -3.390625,-7.203125 -2.25,-1.90625 -5.140625,-3.4375 -8.671875,-4.59375 -3.523438,-1.15625 -8.289062,-2.425781 -14.296875,-3.8125 -9.25,-2.195313 -16.824219,-4.394531 -22.71875,-6.59375 C 22.898438,-57.867188 17.835938,-61.394531 13.609375,-66.25 9.390625,-71.101562 7.28125,-77.578125 7.28125,-85.671875 c 0,-7.0625 1.90625,-13.453125 5.71875,-19.171875 3.820312,-5.71875 9.578125,-10.25391 17.265625,-13.60938 7.6875,-3.35156 17.082031,-5.03125 28.1875,-5.03125 7.738281,0 15.304687,0.92969 22.703125,2.78125 7.40625,1.84375 13.882812,4.5 19.4375,7.96875 l -8.671875,21.32813 c -11.21875,-6.351562 -22.433594,-9.53125 -33.640625,-9.53125 -7.867188,0 -13.679688,1.273438 -17.4375,3.8125 -3.761719,2.542969 -5.640625,5.898438 -5.640625,10.0625 0,4.15625 2.164063,7.25 6.5,9.28125 4.34375,2.023438 10.96875,4.015625 19.875,5.984375 9.25,2.1875 16.820313,4.382813 22.71875,6.578125 5.894531,2.199219 10.953125,5.667969 15.171875,10.40625 4.21875,4.742188 6.32813,11.15625 6.32813,19.25 0,6.9375 -1.9375,13.273438 -5.812505,19 -3.875,5.71875 -9.6875,10.257812 -17.4375,13.609375 -7.742187,3.351563 -17.164063,5.03125 -28.265625,5.03125 z m 0,0"
             id="path15" />
        </g>
      </g>
    </g>
    <g
       fill="#414042"
       fill-opacity="1"
       id="g21"
       transform="translate(48,327)">
      <g
         transform="translate(833.44957,722.84179)"
         id="g20">
        <g
           id="g19">
          <path
             d="M 197.89062,-121.40625 158.17187,0 H 128 L 101.28125,-82.203125 73.71875,0 H 43.703125 L 3.8125,-121.40625 h 29.140625 l 27.40625,85.328125 28.609375,-85.328125 h 26.01563 l 27.74999,86.03125 28.28125,-86.03125 z m 0,0"
             id="path18" />
        </g>
      </g>
    </g>
    <g
       fill="#414042"
       fill-opacity="1"
       id="g24"
       transform="translate(48,327)">
      <g
         transform="translate(1066.375,722.84179)"
         id="g23">
        <g
           id="g22">
          <path
             d="M 14.390625,-121.40625 H 42.5 V 0 H 14.390625 Z m 0,0"
             id="path21" />
        </g>
      </g>
    </g>
    <g
       fill="#414042"
       fill-opacity="1"
       id="g27"
       transform="translate(48,327)">
      <g
         transform="translate(1154.4825,722.84179)"
         id="g26">
        <g
           id="g25">
          <path
             d="m 42.5,-98.859375 v 32.078125 h 56.1875 v 22.546875 H 42.5 V 0 H 14.390625 v -121.40625 h 91.750005 v 22.546875 z m 0,0"
             id="path24" />
        </g>
      </g>
    </g>
    <g
       fill="#414042"
       fill-opacity="1"
       id="g30"
       transform="translate(48,327)">
      <g
         transform="translate(1296.5283,722.84179)"
         id="g29">
        <g
           id="g28">
          <path
             d="M 39.546875,-98.515625 H 0.6875 v -22.890625 h 105.79688 v 22.890625 H 67.640625 V 0 h -28.09375 z m 0,0"
             id="path27" />
        </g>
      </g>
    </g>
    <path
       fill="#f26641"
       d="M 82.523438,1161.0938 H 1427.2773 v 5.3085 H 82.523438 Z m 0,0"
       fill-opacity="1"
       fill-rule="nonzero"
       id="path30" />
    <g
       fill="#f26641"
       fill-opacity="1"
       id="g33"
       transform="translate(48,327)"
       clip-path="url(#clipPath125)">
      <g
         transform="translate(34.525162,830.11283)"
         id="g32">
        <g
           id="g31">
          <path
             d="M 12.921875,-32.203125 H 0.234375 V -39.6875 H 34.8125 v 7.484375 H 22.109375 V 0 h -9.1875 z m 0,0"
             id="path31" />
        </g>
      </g>
    </g>
    <g
       fill="#f26641"
       fill-opacity="1"
       id="g36"
       transform="translate(48,327)">
      <g
         transform="translate(79.359273,830.11283)"
         id="g35">
        <g
           id="g34">
          <path
             d="M 30.84375,-8.5 H 12.421875 L 8.90625,0 h -9.421875 l 17.6875,-39.6875 H 26.25 L 43.984375,0 h -9.625 z m -2.890625,-6.96875 -6.296875,-15.203125 -6.296875,15.203125 z m 0,0"
             id="path33" />
        </g>
      </g>
    </g>
    <g
       fill="#f26641"
       fill-opacity="1"
       id="g39"
       transform="translate(48,327)">
      <g
         transform="translate(132.5817,830.11283)"
         id="g38">
        <g
           id="g37">
          <path
             d="m 4.703125,-39.6875 h 9.1875 V -7.484375 H 33.78125 V 0 H 4.703125 Z m 0,0"
             id="path36" />
        </g>
      </g>
    </g>
    <g
       fill="#f26641"
       fill-opacity="1"
       id="g42"
       transform="translate(48,327)">
      <g
         transform="translate(176.62233,830.11283)"
         id="g41">
        <g
           id="g40">
          <path
             d="m 19.15625,-15.59375 -5.328125,5.5625 V 0 h -9.125 v -39.6875 h 9.125 v 18.546875 L 31.40625,-39.6875 H 41.609375 L 25.171875,-22 42.578125,0 h -10.71875 z m 0,0"
             id="path39" />
        </g>
      </g>
    </g>
    <g
       fill="#f26641"
       fill-opacity="1"
       id="g48"
       transform="translate(48,327)">
      <g
         transform="translate(254.21817,830.11283)"
         id="g47">
        <g
           id="g46">
          <path
             d="m 4.703125,-39.6875 h 9.1875 V -7.484375 H 33.78125 V 0 H 4.703125 Z m 0,0"
             id="path45" />
        </g>
      </g>
    </g>
    <g
       fill="#f26641"
       fill-opacity="1"
       id="g51"
       transform="translate(48,327)">
      <g
         transform="translate(298.2588,830.11283)"
         id="g50">
        <g
           id="g49">
          <path
             d="M 35.4375,-7.375 V 0 H 4.703125 V -39.6875 H 34.6875 v 7.375 H 13.828125 v 8.609375 H 32.25 v 7.15625 H 13.828125 V -7.375 Z m 0,0"
             id="path48" />
        </g>
      </g>
    </g>
    <g
       fill="#f26641"
       fill-opacity="1"
       id="g54"
       transform="translate(48,327)">
      <g
         transform="translate(346.09682,830.11283)"
         id="g53">
        <g
           id="g52">
          <path
             d="m 17.75,0.6875 c -3.148438,0 -6.183594,-0.429688 -9.109375,-1.28125 C 5.710938,-1.445312 3.363281,-2.550781 1.59375,-3.90625 l 3.109375,-6.921875 c 1.695313,1.25 3.71875,2.257813 6.0625,3.015625 2.34375,0.75 4.6875,1.125 7.03125,1.125 2.613281,0 4.539063,-0.382812 5.78125,-1.15625 1.25,-0.78125 1.875,-1.8125 1.875,-3.09375 0,-0.945312 -0.371094,-1.734375 -1.109375,-2.359375 -0.742188,-0.625 -1.6875,-1.125 -2.84375,-1.5 -1.148438,-0.375 -2.699219,-0.789063 -4.65625,-1.25 -3.03125,-0.71875 -5.511719,-1.4375 -7.4375,-2.15625 C 7.476562,-18.921875 5.820312,-20.070312 4.4375,-21.65625 3.0625,-23.238281 2.375,-25.351562 2.375,-28 c 0,-2.3125 0.625,-4.398438 1.875,-6.265625 1.25,-1.875 3.128906,-3.359375 5.640625,-4.453125 2.507813,-1.09375 5.582031,-1.640625 9.21875,-1.640625 2.53125,0 5.003906,0.304687 7.421875,0.90625 2.414062,0.605469 4.53125,1.476563 6.34375,2.609375 l -2.828125,6.96875 c -3.667969,-2.070312 -7.335937,-3.109375 -11,-3.109375 -2.574219,0 -4.476563,0.417969 -5.703125,1.25 -1.230469,0.824219 -1.84375,1.917969 -1.84375,3.28125 0,1.355469 0.707031,2.367187 2.125,3.03125 1.425781,0.65625 3.59375,1.308594 6.5,1.953125 3.019531,0.71875 5.492188,1.4375 7.421875,2.15625 1.925781,0.71875 3.578125,1.855469 4.953125,3.40625 1.382812,1.542969 2.078125,3.636719 2.078125,6.28125 0,2.273438 -0.636719,4.34375 -1.90625,6.21875 -1.261719,1.867188 -3.15625,3.351562 -5.6875,4.453125 C 24.453125,0.140625 21.375,0.6875 17.75,0.6875 Z m 0,0"
             id="path51" />
        </g>
      </g>
    </g>
    <g
       fill="#f26641"
       fill-opacity="1"
       id="g57"
       transform="translate(48,327)">
      <g
         transform="translate(392.06449,830.11283)"
         id="g56">
        <g
           id="g55">
          <path
             d="m 17.75,0.6875 c -3.148438,0 -6.183594,-0.429688 -9.109375,-1.28125 C 5.710938,-1.445312 3.363281,-2.550781 1.59375,-3.90625 l 3.109375,-6.921875 c 1.695313,1.25 3.71875,2.257813 6.0625,3.015625 2.34375,0.75 4.6875,1.125 7.03125,1.125 2.613281,0 4.539063,-0.382812 5.78125,-1.15625 1.25,-0.78125 1.875,-1.8125 1.875,-3.09375 0,-0.945312 -0.371094,-1.734375 -1.109375,-2.359375 -0.742188,-0.625 -1.6875,-1.125 -2.84375,-1.5 -1.148438,-0.375 -2.699219,-0.789063 -4.65625,-1.25 -3.03125,-0.71875 -5.511719,-1.4375 -7.4375,-2.15625 C 7.476562,-18.921875 5.820312,-20.070312 4.4375,-21.65625 3.0625,-23.238281 2.375,-25.351562 2.375,-28 c 0,-2.3125 0.625,-4.398438 1.875,-6.265625 1.25,-1.875 3.128906,-3.359375 5.640625,-4.453125 2.507813,-1.09375 5.582031,-1.640625 9.21875,-1.640625 2.53125,0 5.003906,0.304687 7.421875,0.90625 2.414062,0.605469 4.53125,1.476563 6.34375,2.609375 l -2.828125,6.96875 c -3.667969,-2.070312 -7.335937,-3.109375 -11,-3.109375 -2.574219,0 -4.476563,0.417969 -5.703125,1.25 -1.230469,0.824219 -1.84375,1.917969 -1.84375,3.28125 0,1.355469 0.707031,2.367187 2.125,3.03125 1.425781,0.65625 3.59375,1.308594 6.5,1.953125 3.019531,0.71875 5.492188,1.4375 7.421875,2.15625 1.925781,0.71875 3.578125,1.855469 4.953125,3.40625 1.382812,1.542969 2.078125,3.636719 2.078125,6.28125 0,2.273438 -0.636719,4.34375 -1.90625,6.21875 -1.261719,1.867188 -3.15625,3.351562 -5.6875,4.453125 C 24.453125,0.140625 21.375,0.6875 17.75,0.6875 Z m 0,0"
             id="path54" />
        </g>
      </g>
    </g>
    <g
       fill="#f26641"
       fill-opacity="1"
       id="g60"
       transform="translate(48,327)">
      <g
         transform="translate(438.03214,830.11283)"
         id="g59">
        <g
           id="g58">
          <path
             d="m 7.421875,0.453125 c -1.542969,0 -2.84375,-0.5234375 -3.90625,-1.578125 -1.0625,-1.0625 -1.59375,-2.390625 -1.59375,-3.984375 0,-1.625 0.53125,-2.9375 1.59375,-3.9375 1.0625,-1 2.363281,-1.5 3.90625,-1.5 1.550781,0 2.851563,0.5 3.90625,1.5 1.0625,1 1.59375,2.3125 1.59375,3.9375 0,1.59375 -0.53125,2.921875 -1.59375,3.984375 -1.054687,1.0546875 -2.355469,1.578125 -3.90625,1.578125 z m 0,0"
             id="path57" />
        </g>
      </g>
    </g>
    <g
       fill="#f26641"
       fill-opacity="1"
       id="g66"
       transform="translate(48,327)">
      <g
         transform="translate(488.53605,830.11283)"
         id="g65">
        <g
           id="g64">
          <path
             d="M 30.84375,-8.5 H 12.421875 L 8.90625,0 h -9.421875 l 17.6875,-39.6875 H 26.25 L 43.984375,0 h -9.625 z m -2.890625,-6.96875 -6.296875,-15.203125 -6.296875,15.203125 z m 0,0"
             id="path63" />
        </g>
      </g>
    </g>
    <g
       fill="#f26641"
       fill-opacity="1"
       id="g69"
       transform="translate(48,327)">
      <g
         transform="translate(541.75846,830.11283)"
         id="g68">
        <g
           id="g67">
          <path
             d="m 23.703125,0.6875 c -4.054687,0 -7.714844,-0.878906 -10.984375,-2.640625 -3.261719,-1.757813 -5.828125,-4.195313 -7.703125,-7.3125 -1.875,-3.113281 -2.8125,-6.640625 -2.8125,-10.578125 0,-3.925781 0.9375,-7.445312 2.8125,-10.5625 1.875,-3.125 4.441406,-5.5625 7.703125,-7.3125 3.269531,-1.757812 6.945312,-2.640625 11.03125,-2.640625 3.4375,0 6.546875,0.605469 9.328125,1.8125 2.78125,1.210937 5.113281,2.949219 7,5.21875 l -5.890625,5.4375 c -2.6875,-3.09375 -6.015625,-4.640625 -9.984375,-4.640625 -2.460937,0 -4.652344,0.539062 -6.578125,1.609375 -1.929688,1.074219 -3.433594,2.574219 -4.515625,4.5 C 12.035156,-24.492188 11.5,-22.300781 11.5,-19.84375 c 0,2.460938 0.535156,4.652344 1.609375,6.578125 1.082031,1.929687 2.585937,3.433594 4.515625,4.515625 1.925781,1.074219 4.117188,1.609375 6.578125,1.609375 3.96875,0 7.296875,-1.566406 9.984375,-4.703125 l 5.890625,5.4375 c -1.886719,2.304688 -4.230469,4.0625 -7.03125,5.28125 -2.792969,1.2070312 -5.90625,1.8125 -9.34375,1.8125 z m 0,0"
             id="path66" />
        </g>
      </g>
    </g>
    <g
       fill="#f26641"
       fill-opacity="1"
       id="g72"
       transform="translate(48,327)">
      <g
         transform="translate(593.11053,830.11283)"
         id="g71">
        <g
           id="g70">
          <path
             d="M 12.921875,-32.203125 H 0.234375 V -39.6875 H 34.8125 v 7.484375 H 22.109375 V 0 h -9.1875 z m 0,0"
             id="path69" />
        </g>
      </g>
    </g>
    <g
       fill="#f26641"
       fill-opacity="1"
       id="g78"
       transform="translate(48,327)">
      <g
         transform="translate(663.79167,830.11283)"
         id="g77">
        <g
           id="g76">
          <path
             d="m 40.8125,0 -0.04687,-23.8125 -11.6875,19.625 H 24.9375 L 13.328125,-23.296875 V 0 h -8.625 v -39.6875 h 7.59375 L 27.15625,-15.015625 41.78125,-39.6875 H 49.3125 L 49.4375,0 Z m 0,0"
             id="path75" />
        </g>
      </g>
    </g>
    <g
       fill="#f26641"
       fill-opacity="1"
       id="g81"
       transform="translate(48,327)">
      <g
         transform="translate(727.72622,830.11283)"
         id="g80">
        <g
           id="g79">
          <path
             d="M 23.921875,0.6875 C 19.804688,0.6875 16.09375,-0.195312 12.78125,-1.96875 9.476562,-3.75 6.890625,-6.195312 5.015625,-9.3125 c -1.875,-3.125 -2.8125,-6.632812 -2.8125,-10.53125 0,-3.882812 0.9375,-7.382812 2.8125,-10.5 1.875,-3.125 4.460937,-5.570312 7.765625,-7.34375 3.3125,-1.78125 7.023438,-2.671875 11.140625,-2.671875 4.113281,0 7.816406,0.890625 11.109375,2.671875 3.289062,1.773438 5.878906,4.21875 7.765625,7.34375 1.894531,3.117188 2.84375,6.617188 2.84375,10.5 0,3.898438 -0.949219,7.40625 -2.84375,10.53125 -1.886719,3.117188 -4.476563,5.5625 -7.765625,7.34375 -3.292969,1.773438 -6.996094,2.65625 -11.109375,2.65625 z m 0,-7.828125 c 2.34375,0 4.457031,-0.535156 6.34375,-1.609375 1.894531,-1.082031 3.378906,-2.585938 4.453125,-4.515625 1.082031,-1.925781 1.625,-4.117187 1.625,-6.578125 0,-2.457031 -0.542969,-4.648438 -1.625,-6.578125 -1.074219,-1.925781 -2.558594,-3.425781 -4.453125,-4.5 -1.886719,-1.070313 -4,-1.609375 -6.34375,-1.609375 -2.34375,0 -4.464844,0.539062 -6.359375,1.609375 -1.886719,1.074219 -3.371094,2.574219 -4.453125,4.5 C 12.035156,-24.492188 11.5,-22.300781 11.5,-19.84375 c 0,2.460938 0.535156,4.652344 1.609375,6.578125 1.082031,1.929687 2.566406,3.433594 4.453125,4.515625 1.894531,1.074219 4.015625,1.609375 6.359375,1.609375 z m 0,0"
             id="path78" />
        </g>
      </g>
    </g>
    <g
       fill="#f26641"
       fill-opacity="1"
       id="g84"
       transform="translate(48,327)">
      <g
         transform="translate(785.36945,830.11283)"
         id="g83">
        <g
           id="g82">
          <path
             d="m 29.984375,0 -7.65625,-11.046875 h -8.4375 V 0 h -9.1875 V -39.6875 H 21.875 c 3.519531,0 6.570312,0.589844 9.15625,1.765625 2.59375,1.167969 4.585938,2.828125 5.984375,4.984375 1.394531,2.15625 2.09375,4.710938 2.09375,7.65625 0,2.949219 -0.710937,5.492188 -2.125,7.625 -1.417969,2.136719 -3.429687,3.773438 -6.03125,4.90625 L 39.84375,0 Z M 29.8125,-25.28125 c 0,-2.226562 -0.71875,-3.9375 -2.15625,-5.125 -1.429688,-1.195312 -3.523438,-1.796875 -6.28125,-1.796875 h -7.484375 v 13.84375 H 21.375 c 2.757812,0 4.851562,-0.601563 6.28125,-1.8125 1.4375,-1.21875 2.15625,-2.921875 2.15625,-5.109375 z m 0,0"
             id="path81" />
        </g>
      </g>
    </g>
    <g
       fill="#f26641"
       fill-opacity="1"
       id="g87"
       transform="translate(48,327)">
      <g
         transform="translate(836.83493,830.11283)"
         id="g86">
        <g
           id="g85">
          <path
             d="M 35.4375,-7.375 V 0 H 4.703125 V -39.6875 H 34.6875 v 7.375 H 13.828125 v 8.609375 H 32.25 v 7.15625 H 13.828125 V -7.375 Z m 0,0"
             id="path84" />
        </g>
      </g>
    </g>
    <g
       fill="#f26641"
       fill-opacity="1"
       id="g90"
       transform="translate(48,327)">
      <g
         transform="translate(884.67292,830.11283)"
         id="g89">
        <g
           id="g88">
          <path
             d="m 7.421875,0.453125 c -1.542969,0 -2.84375,-0.5234375 -3.90625,-1.578125 -1.0625,-1.0625 -1.59375,-2.390625 -1.59375,-3.984375 0,-1.625 0.53125,-2.9375 1.59375,-3.9375 1.0625,-1 2.363281,-1.5 3.90625,-1.5 1.550781,0 2.851563,0.5 3.90625,1.5 1.0625,1 1.59375,2.3125 1.59375,3.9375 0,1.59375 -0.53125,2.921875 -1.59375,3.984375 -1.054687,1.0546875 -2.355469,1.578125 -3.90625,1.578125 z m 0,0"
             id="path87" />
        </g>
      </g>
    </g>
    <g
       fill="#f26641"
       fill-opacity="1"
       id="g96"
       transform="translate(48,327)">
      <g
         transform="translate(935.17674,830.11283)"
         id="g95">
        <g
           id="g94">
          <path
             d="m 21.875,-39.6875 c 3.519531,0 6.570312,0.589844 9.15625,1.765625 2.59375,1.167969 4.585938,2.828125 5.984375,4.984375 1.394531,2.15625 2.09375,4.710938 2.09375,7.65625 0,2.90625 -0.699219,5.449219 -2.09375,7.625 -1.398437,2.167969 -3.390625,3.828125 -5.984375,4.984375 -2.585938,1.15625 -5.636719,1.734375 -9.15625,1.734375 H 13.890625 V 0 h -9.1875 v -39.6875 z m -0.5,21.265625 c 2.757812,0 4.851562,-0.59375 6.28125,-1.78125 1.4375,-1.195313 2.15625,-2.890625 2.15625,-5.078125 0,-2.226562 -0.71875,-3.9375 -2.15625,-5.125 -1.429688,-1.195312 -3.523438,-1.796875 -6.28125,-1.796875 h -7.484375 v 13.78125 z m 0,0"
             id="path93" />
        </g>
      </g>
    </g>
    <g
       fill="#f26641"
       fill-opacity="1"
       id="g99"
       transform="translate(48,327)">
      <g
         transform="translate(986.47219,830.11283)"
         id="g98">
        <g
           id="g97">
          <path
             d="M 30.84375,-8.5 H 12.421875 L 8.90625,0 h -9.421875 l 17.6875,-39.6875 H 26.25 L 43.984375,0 h -9.625 z m -2.890625,-6.96875 -6.296875,-15.203125 -6.296875,15.203125 z m 0,0"
             id="path96" />
        </g>
      </g>
    </g>
    <g
       fill="#f26641"
       fill-opacity="1"
       id="g102"
       transform="translate(48,327)">
      <g
         transform="translate(1039.6946,830.11283)"
         id="g101">
        <g
           id="g100">
          <path
             d="M 23.75,-14.0625 V 0 H 14.5625 V -14.171875 L -0.796875,-39.6875 h 9.75 L 19.5625,-22.046875 30.15625,-39.6875 h 9.015625 z m 0,0"
             id="path99" />
        </g>
      </g>
    </g>
    <g
       fill="#f26641"
       fill-opacity="1"
       id="g108"
       transform="translate(48,327)">
      <g
         transform="translate(1113.6631,830.11283)"
         id="g107">
        <g
           id="g106">
          <path
             d="m 17.75,0.6875 c -3.148438,0 -6.183594,-0.429688 -9.109375,-1.28125 C 5.710938,-1.445312 3.363281,-2.550781 1.59375,-3.90625 l 3.109375,-6.921875 c 1.695313,1.25 3.71875,2.257813 6.0625,3.015625 2.34375,0.75 4.6875,1.125 7.03125,1.125 2.613281,0 4.539063,-0.382812 5.78125,-1.15625 1.25,-0.78125 1.875,-1.8125 1.875,-3.09375 0,-0.945312 -0.371094,-1.734375 -1.109375,-2.359375 -0.742188,-0.625 -1.6875,-1.125 -2.84375,-1.5 -1.148438,-0.375 -2.699219,-0.789063 -4.65625,-1.25 -3.03125,-0.71875 -5.511719,-1.4375 -7.4375,-2.15625 C 7.476562,-18.921875 5.820312,-20.070312 4.4375,-21.65625 3.0625,-23.238281 2.375,-25.351562 2.375,-28 c 0,-2.3125 0.625,-4.398438 1.875,-6.265625 1.25,-1.875 3.128906,-3.359375 5.640625,-4.453125 2.507813,-1.09375 5.582031,-1.640625 9.21875,-1.640625 2.53125,0 5.003906,0.304687 7.421875,0.90625 2.414062,0.605469 4.53125,1.476563 6.34375,2.609375 l -2.828125,6.96875 c -3.667969,-2.070312 -7.335937,-3.109375 -11,-3.109375 -2.574219,0 -4.476563,0.417969 -5.703125,1.25 -1.230469,0.824219 -1.84375,1.917969 -1.84375,3.28125 0,1.355469 0.707031,2.367187 2.125,3.03125 1.425781,0.65625 3.59375,1.308594 6.5,1.953125 3.019531,0.71875 5.492188,1.4375 7.421875,2.15625 1.925781,0.71875 3.578125,1.855469 4.953125,3.40625 1.382812,1.542969 2.078125,3.636719 2.078125,6.28125 0,2.273438 -0.636719,4.34375 -1.90625,6.21875 -1.261719,1.867188 -3.15625,3.351562 -5.6875,4.453125 C 24.453125,0.140625 21.375,0.6875 17.75,0.6875 Z m 0,0"
             id="path105" />
        </g>
      </g>
    </g>
    <g
       fill="#f26641"
       fill-opacity="1"
       id="g111"
       transform="translate(48,327)">
      <g
         transform="translate(1159.6307,830.11283)"
         id="g110">
        <g
           id="g109">
          <path
             d="M 64.6875,-39.6875 51.703125,0 h -9.875 L 33.109375,-26.875 24.09375,0 h -9.8125 L 1.25,-39.6875 h 9.515625 l 8.96875,27.890625 9.34375,-27.890625 h 8.5 l 9.078125,28.125 9.234375,-28.125 z m 0,0"
             id="path108" />
        </g>
      </g>
    </g>
    <g
       fill="#f26641"
       fill-opacity="1"
       id="g114"
       transform="translate(48,327)">
      <g
         transform="translate(1235.3543,830.11283)"
         id="g113">
        <g
           id="g112">
          <path
             d="m 4.703125,-39.6875 h 9.1875 V 0 h -9.1875 z m 0,0"
             id="path111" />
        </g>
      </g>
    </g>
    <g
       fill="#f26641"
       fill-opacity="1"
       id="g117"
       transform="translate(48,327)">
      <g
         transform="translate(1263.7518,830.11283)"
         id="g116">
        <g
           id="g115">
          <path
             d="m 13.890625,-32.3125 v 10.484375 H 32.25 v 7.375 H 13.890625 V 0 h -9.1875 V -39.6875 H 34.6875 v 7.375 z m 0,0"
             id="path114" />
        </g>
      </g>
    </g>
    <g
       fill="#f26641"
       fill-opacity="1"
       id="g120"
       transform="translate(48,327)">
      <g
         transform="translate(1309.7762,830.11283)"
         id="g119">
        <g
           id="g118">
          <path
             d="M 12.921875,-32.203125 H 0.234375 V -39.6875 H 34.8125 v 7.484375 H 22.109375 V 0 h -9.1875 z m 0,0"
             id="path117" />
        </g>
      </g>
    </g>
    <g
       fill="#f26641"
       fill-opacity="1"
       id="g123"
       transform="translate(48,327)">
      <g
         transform="translate(1354.6103,830.11283)"
         id="g122">
        <g
           id="g121">
          <path
             d="m 7.421875,0.453125 c -1.542969,0 -2.84375,-0.5234375 -3.90625,-1.578125 -1.0625,-1.0625 -1.59375,-2.390625 -1.59375,-3.984375 0,-1.625 0.53125,-2.9375 1.59375,-3.9375 1.0625,-1 2.363281,-1.5 3.90625,-1.5 1.550781,0 2.851563,0.5 3.90625,1.5 1.0625,1 1.59375,2.3125 1.59375,3.9375 0,1.59375 -0.53125,2.921875 -1.59375,3.984375 -1.054687,1.0546875 -2.355469,1.578125 -3.90625,1.578125 z m 0,0"
             id="path120" />
        </g>
      </g>
    </g>
  </g>
</svg>
